<svg width="52" height="52" viewBox="0 0 52 52" fill="none" xmlns="http://www.w3.org/2000/svg">
<path fill-rule="evenodd" clip-rule="evenodd" d="M36.9895 46.1053C36.999 41.7485 37.001 33.5985 36.9971 26.0578L36.9817 6.13702H29.1553V45.4809C31.7983 45.575 34.4097 45.7831 36.9895 46.1053Z" fill="#B1060F"/>
<path fill-rule="evenodd" clip-rule="evenodd" d="M15 6.11068C15 9.90267 14.9941 36.3582 15.0108 46.1012C17.5702 45.7791 20.1631 45.5716 22.7897 45.4788V6.10675H15V6.11068Z" fill="#B1060F"/>
<path fill-rule="evenodd" clip-rule="evenodd" d="M15 6.11068L22.9051 28.5029V28.4931L23.53 30.2571C27.0019 40.0807 28.8669 45.3523 28.877 45.3625L28.9121 45.4686C31.6362 45.5571 34.2785 45.7657 36.9341 46.0992L36.9607 46.0137L29.1235 23.7731V23.7784L28.3992 21.731C27.6898 19.7295 27.2169 18.3898 24.3653 10.337C23.5985 8.1685 22.947 6.33638 22.9208 6.25252L22.8697 6.10675H18.934L15 6.11068Z" fill="#E50914"/>
</svg>
