<svg width="52" height="52" viewBox="0 0 52 52" fill="none" xmlns="http://www.w3.org/2000/svg">
<path d="M25.999 5.27795C14.4067 5.27795 4.99902 14.6086 4.99902 26.1061C4.99902 37.6035 14.4067 46.9342 25.999 46.9342C37.5914 46.9342 46.999 37.6035 46.999 26.1061C46.999 14.6086 37.5914 5.27795 25.999 5.27795Z" fill="#1ED760"/>
<path d="M39.4289 24.015C38.9886 24.015 38.7176 23.9058 38.3366 23.6874C32.3075 20.1181 21.5281 19.2615 14.5507 21.1931C14.2458 21.2771 13.8648 21.4115 13.4583 21.4115C12.3406 21.4115 11.4854 20.5464 11.4854 19.4294C11.4854 18.2872 12.1966 17.6406 12.9587 17.4222C15.9394 16.5572 19.2757 16.1456 22.9083 16.1456C29.0898 16.1456 35.5676 17.4222 40.3011 20.1601C40.9616 20.538 41.3934 21.0587 41.3934 22.0581C41.3934 23.2003 40.462 24.015 39.4289 24.015ZM36.8039 30.4146C36.3636 30.4146 36.0672 30.2214 35.7624 30.0618C30.47 26.9544 22.5781 25.7031 15.5583 27.5927C15.1519 27.7019 14.9317 27.8111 14.5507 27.8111C13.6446 27.8111 12.9079 27.0804 12.9079 26.1818C12.9079 25.2831 13.3483 24.6868 14.2204 24.4433C16.5745 23.7882 18.9793 23.3011 22.5019 23.3011C27.9974 23.3011 33.3067 24.6532 37.4898 27.1224C38.1757 27.5255 38.4466 28.0462 38.4466 28.7769C38.4382 29.6839 37.7269 30.4146 36.8039 30.4146ZM34.5261 35.924C34.1704 35.924 33.9503 35.8148 33.62 35.6216C28.3362 32.4638 22.1886 32.3294 16.1172 33.564C15.787 33.648 15.3551 33.7823 15.1095 33.7823C14.2882 33.7823 13.7716 33.1357 13.7716 32.4554C13.7716 31.5904 14.2882 31.1788 14.9233 31.0445C21.8583 29.5243 28.9458 29.6587 34.9918 33.2448C35.5083 33.5724 35.8132 33.8663 35.8132 34.6306C35.8132 35.3948 35.212 35.924 34.5261 35.924Z" fill="black"/>
</svg>
