<svg width="52" height="52" viewBox="0 0 52 52" fill="none" xmlns="http://www.w3.org/2000/svg">
<g clip-path="url(#clip0_293_7927)">
<path d="M50.4844 13.7501C50.1961 12.6651 49.6278 11.6749 48.8365 10.8785C48.0453 10.0822 47.0587 9.50758 45.9756 9.2123C41.9883 8.14014 26.0508 8.14014 26.0508 8.14014C26.0508 8.14014 10.1133 8.14014 6.12601 9.2123C5.04288 9.50758 4.05631 10.0822 3.26502 10.8785C2.47373 11.6749 1.90548 12.6651 1.61715 13.7501C0.550781 17.7548 0.550781 26.106 0.550781 26.106C0.550781 26.106 0.550781 34.4573 1.61715 38.462C1.90548 39.5469 2.47373 40.5372 3.26502 41.3336C4.05631 42.1299 5.04288 42.7045 6.12601 42.9998C10.1133 44.072 26.0508 44.072 26.0508 44.072C26.0508 44.072 41.9883 44.072 45.9756 42.9998C47.0587 42.7045 48.0453 42.1299 48.8365 41.3336C49.6278 40.5372 50.1961 39.5469 50.4844 38.462C51.5508 34.4573 51.5508 26.106 51.5508 26.106C51.5508 26.106 51.5508 17.7548 50.4844 13.7501Z" fill="#FF0000"/>
<path d="M20.835 33.6894V18.5227L34.1645 26.1061L20.835 33.6894Z" fill="white"/>
</g>
<defs>
<clipPath id="clip0_293_7927">
<rect width="51" height="51" fill="white" transform="translate(0.5 0.606018)"/>
</clipPath>
</defs>
</svg>
