<svg width="490" height="451" viewBox="0 0 490 451" fill="none" xmlns="http://www.w3.org/2000/svg">
<path d="M423.352 67.1139C418.031 59.1183 412.468 51.84 406.894 45.8694C397.61 36.0372 386.778 27.7078 373.592 22.4737C364.346 18.7202 354.639 16.7573 344.862 15.6106C340.295 15.0234 335.665 14.743 330.955 14.7016C321.788 12.5939 312.7 12.132 304.023 12.9371C301.168 11.4557 298.264 10.0601 295.329 8.8178C283.521 3.86673 271.547 2.07693 259.365 1.93775C252.333 1.86663 245.158 2.34127 238.079 3.44263C231.423 4.5031 224.722 5.93792 218.008 7.59368C211.59 5.76339 205.034 4.76745 198.3 5.26879C186.996 5.98118 176.674 10.634 165.901 16.5679C155.513 22.3256 146.033 29.5798 137.156 37.4693L136.756 37.8665C127.545 39.1048 118.68 40.83 110.555 43.1542C110.15 43.2628 109.746 43.3713 109.341 43.4799C106.575 44.2216 103.932 45.1481 101.423 46.0384L100.816 46.2013C100.245 46.4993 99.6198 46.5944 99.0308 46.8249L93.9506 48.9122L88.515 51.0225C81.8209 53.8326 75.7076 56.9219 70.1389 60.155C64.835 63.0272 59.824 66.1833 55.0022 69.506C51.6921 70.1039 48.5532 70.8008 45.6528 71.5787C28.525 76.4624 14.1436 85.3935 7.80244 97.8941C6.37779 98.7836 4.98936 99.8083 3.74077 101.085C2.11053 102.827 0.320767 106.134 0.923134 108.655C1.12254 112.37 2.68741 114.705 4.53515 116.746L4.65394 120.701C4.89599 122.955 5.1742 125.345 5.60545 127.766C1.58718 138.412 -0.284063 149.786 0.814335 161.451C1.29199 167.556 2.6778 173.273 4.36462 178.764C1.85013 190.166 0.599136 201.157 0.196962 211.267C-0.434784 229.702 2.94424 246.917 9.43285 264.674C12.6369 273.672 16.5023 282.711 20.9204 291.383C30.795 310.987 43.1424 329.565 57.4604 345.513L73.0023 361.712C86.8314 375.834 101.169 389.964 116.421 402.109C131.435 414.174 147.132 423.663 163.325 430.41C177.573 436.373 191.363 440.358 201.885 442.392C207.748 443.501 213.246 444.056 218.942 444.268C231.062 444.714 244.94 443.891 263.909 442.645L294.277 441.314C301.709 440.988 309.109 440.815 316.354 439.524C323.042 438.31 328.905 436.448 334.062 434.92C341.63 432.672 348.68 429.839 355.584 426.465C373.448 425.951 388.581 420.37 400.24 413.691C417.203 404.14 428.506 388.569 433.039 370.393C434.836 363.604 435.823 355.947 436.156 347.739C438.955 343.074 441.719 338.274 444.176 333.411C452.079 318.1 457.812 302.79 464.488 293.969L474.774 281.353C480.318 273.705 482.742 264.936 483.069 255.354C483.121 248.526 482.363 241.916 481.715 235.711C480.575 223.623 480.291 212.029 480.142 203.371C480.065 192.012 478.761 181.199 475.907 168.918C472.701 155.861 469.186 143.54 463.038 135.694C458.755 129.956 455.345 124.782 450.698 116.606L445.808 108.06C443.672 103.052 441.438 98.2147 439.055 93.635L438.216 92.1205C436.471 87.2246 435.393 82.6574 435.492 79.5143C426.098 66.114 423.352 67.1139 423.352 67.1139ZM59.5031 303.722C59.5031 303.722 59.4488 303.519 59.4126 303.384C63.6118 310.159 68.1613 316.621 72.7372 322.642C69.7723 319.669 67.0277 316.708 64.7554 313.621C61.6851 309.443 60.0331 305.972 59.5212 303.79L59.5031 303.722ZM66.0464 288.196L60.0979 276.237C58.3372 272.36 56.9319 268.461 55.6615 264.525C59.8785 268.395 64.2615 272.076 68.6578 275.536C70.3245 276.901 72.1081 278.162 73.8422 279.509C75.4268 282.998 77.1464 286.451 78.8659 289.904L78.7311 289.94C74.34 289.74 70.3354 289.365 66.6057 289.205C66.4478 288.885 66.2044 288.516 66.0464 288.196ZM52.393 235.031C52.4818 234.283 52.7054 233.498 52.8616 232.731C53.8357 234.209 54.7918 235.62 55.7478 237.031L57.1233 239.199C58.8461 241.853 60.6051 244.643 62.4808 247.33C63.0058 249.291 63.5128 251.184 64.1052 253.127C62.9338 251.992 61.6453 250.96 60.5232 249.739L52.0875 240.912C52.1383 238.941 52.1892 236.97 52.4605 235.013L52.393 235.031ZM285.101 40.5542C292.912 38.6766 300.513 37.3629 307.848 36.4102C309.731 37.5 311.631 38.6573 313.599 39.7967L342.417 56.7114L357.519 65.0554C368.93 71.4904 377.467 76.3764 383.88 80.8898C388.082 83.8943 391.592 87.0121 395.003 90.3013C398.896 97.0128 402.426 104.257 405.366 111.731C408.587 119.71 411.027 126.666 412.256 133.15C412.293 133.285 412.329 133.42 412.365 133.556C409.846 130.897 407.21 128.342 404.354 125.774C400.417 122.409 396.111 119.287 391.756 116.251C379.911 105.221 366.494 95.3382 351.918 87.0704L337.42 79.3617C327.793 74.188 317.857 69.7495 307.631 66.1139C304.156 62.0447 300.465 58.2507 296.645 54.7814L286.45 46.1359C284.955 44.8699 283.391 43.622 281.847 42.4418C283.038 41.7599 284.179 41.1638 285.388 40.5496L285.101 40.5542ZM45.2084 162.011L48.5559 156.692C49.6153 155.248 50.8278 153.836 52.0402 152.423L55.3324 154.73C54.6547 155.709 53.9276 156.773 53.268 157.82C50.4189 162.571 48.0469 167.484 46.7328 172.837C46.1287 169.23 45.5921 165.605 45.2759 161.993L45.2084 162.011ZM48.1334 123.246C51.4464 118.878 54.8863 114.984 58.6683 111.288C62.3516 107.763 66.9922 103.764 72.398 99.922C86.2536 96.8582 100.261 92.7389 113.265 86.4966C114.656 86.5586 115.978 86.6388 117.368 86.7008L123.424 87.1786C121.268 88.8443 119.197 90.5595 117.143 92.3424C114.508 92.7594 111.823 93.262 109.26 93.9494C101.57 96.0118 93.6358 99.5895 86.2477 104.398C82.6613 106.664 79.2149 109.183 76.0432 111.919C74.0427 112.818 71.9568 113.667 69.9926 114.701C61.4116 119.105 54.0825 124.405 47.7622 130.231L46.0823 129.087C46.3948 127.554 46.7929 126.07 47.2402 124.5C47.5544 124.053 47.783 123.557 48.1153 123.178L48.1334 123.246ZM383.574 164.544C390.69 175.465 396.171 187.839 399.696 200.738C398.203 203.531 396.574 206.359 394.725 209.175C392.177 204.784 389.664 200.53 387.084 196.293L381.193 186.71C379.337 176.263 375.078 166.026 369.304 156.34C368.164 152.079 366.821 147.873 365.159 143.825C363.673 140.164 361.899 136.508 359.905 132.839C364.538 138.265 369.127 144.065 373.415 150.091L383.574 164.544ZM301.044 332.37C297.898 328.719 294.495 324.921 291.007 321.072C297.764 320.927 304.106 320.313 310.101 319.213C307.211 323.54 304.137 327.988 301.044 332.37ZM288.55 258.961C283.209 260.612 277.678 262.095 271.975 263.479L251.097 268.934C248.497 269.486 245.893 269.75 243.374 270.063C263.376 261.872 281.365 252.915 294.928 243.624L305.653 235.891C308.355 237.341 311.155 238.619 313.87 239.848C311.215 242.083 308.492 244.335 305.617 246.556L290.946 257.377C290.209 257.864 289.355 258.456 288.618 258.943L288.55 258.961ZM143.875 224.339L145.268 220.631L157.205 230.114C156.845 232.82 156.485 235.526 156.278 238.264C151.898 233.785 147.819 229.08 143.942 224.321L143.875 224.339ZM210.648 248.543C210.302 249.143 209.669 249.748 209.256 250.366L179.382 226.268L171.09 219.867C175.545 201.131 184.19 183.736 194.952 167.223C195.315 166.691 195.697 166.226 196.06 165.694C200.96 171.845 205.303 178.074 208.309 184.443C216.267 200.937 218.634 218.423 216.831 235.722C216.729 236.692 216.627 237.661 216.525 238.631L210.715 248.525L210.648 248.543ZM154.005 206.546L151.653 204.785C160.399 185.333 172.427 167.611 186.33 154.459C186.537 154.694 186.812 154.91 187.037 155.212L187.245 155.446C186.221 157.025 185.18 158.537 184.175 160.183C174.083 176.227 165.586 193.365 160.77 211.835L154.023 206.614L154.005 206.546ZM171.023 116.452C171.427 116.344 171.796 116.1 172.183 115.924L184.23 116.099C192.247 116.341 199.406 116.885 206.11 117.624C200.844 121.718 195.552 126.255 190.093 130.98L189.676 131.31C183.26 125.71 176.891 120.822 170.888 116.488L171.023 116.452ZM218.013 139.945C218.176 140.554 218.321 141.095 218.466 141.636C221.194 151.559 223.808 162.673 225.189 174.045C220.668 165.255 214.752 157.201 208.204 149.752C211.41 146.065 214.725 142.784 217.946 139.963L218.013 139.945ZM258.025 162.484C251.497 151.332 247.546 139.273 245.408 127.234C254.691 131.123 264.151 136.486 273.906 143.22C279.855 147.351 285.592 150.958 290.435 154.733C300.228 162.689 310.078 173.022 316.844 184.254L322.317 194.166C323.053 195.563 323.721 196.979 324.236 198.362C320.141 203.592 315.103 209.075 309.047 214.541C308.448 214.194 307.8 213.933 307.201 213.586C292.891 204.957 278.469 191.864 267.274 176.239L258.025 162.484ZM157.528 128.697C163.451 133.269 169.569 138.297 175.696 143.902C161.012 157.915 148.616 175.882 139.317 195.699L125.161 185.217C123.359 183.888 121.661 182.676 119.945 181.397C119.155 176.825 118.769 172.144 118.758 167.509C118.777 162.72 119.206 158.111 120.063 153.75C123.797 148.254 127.806 142.975 131.991 138.083C138.453 133.596 145.392 129.27 152.777 125.26C154.303 126.373 155.83 127.485 157.461 128.715L157.528 128.697ZM168.25 238.967L168.885 239.449L196.846 262.61C195.709 263.494 194.505 264.397 193.282 265.233C192.193 264.945 191.018 264.607 190.046 264.216C182.682 261.552 175.294 255.56 167.659 248.911C167.752 245.479 167.949 242.164 168.232 238.899L168.25 238.967ZM170.974 271.288C170.051 270.811 169.061 270.352 168.119 269.807C168.065 269.604 168.096 269.451 168.109 269.23C169.019 269.928 170.064 270.59 171.042 271.27L170.974 271.288ZM236.057 240.568C244.096 223.336 246.971 204.371 246.075 186.709L245.538 180.112L250.989 187.783C262.793 204.332 277.396 218.101 292.559 228.023L287.108 232.24C273.318 242.027 253.296 252.036 230.835 261.032C234.01 254.527 235.258 247.306 236.106 240.483L236.057 240.568ZM323.531 221.384C324.582 220.449 325.48 219.484 326.531 218.549C326.349 219.758 326.081 220.917 325.745 222.094C325.029 221.851 324.246 221.627 323.531 221.384ZM101.337 194.796L101.35 191.603C101.704 190.493 102.094 189.519 102.447 188.409C103.082 188.891 103.803 189.423 104.524 189.954C106.107 195.328 108.284 200.761 111.455 205.854L121.294 220.466C123.085 223.102 124.992 225.635 126.917 228.235C126.089 231.357 125.348 234.527 124.777 237.797C114.958 227.311 108.124 216.097 104.449 205.341C102.899 200.9 101.566 197.271 101.337 194.796ZM139.06 242.809C144.152 248.329 149.564 253.691 155.289 258.607C155.26 259.847 155.383 261.118 155.354 262.358L139.937 251.489C139.302 251.007 138.753 250.575 138.185 250.075C138.379 247.558 138.676 245.159 139.042 242.742L139.06 242.809ZM202.545 284.71C203.692 284.403 204.735 283.978 205.863 283.603C206.322 283.697 206.696 283.742 207.155 283.837C212.798 284.932 218.908 285.613 225.148 285.969C226.608 287.099 228 288.248 229.392 289.397C227.233 289.976 225.075 290.555 222.898 291.066C215.972 289.227 209.175 287.064 202.478 284.729L202.545 284.71ZM332.233 273.339L337.377 263.117L336.403 267.582C336.086 268.827 335.584 270.193 335.15 271.542C334.161 272.17 333.24 272.779 332.233 273.339ZM150.808 317.215C150.492 316.575 150.109 315.953 149.793 315.313L149.738 315.11C155.09 317.008 160.707 318.546 166.423 319.913C168.202 323.857 170.268 327.796 172.519 331.614C165.364 327.3 157.996 322.462 150.79 317.147L150.808 317.215ZM74.4433 213.968C74.4433 213.968 74.4023 213.545 74.4154 213.324L74.4433 213.968ZM287.968 350.228C286.89 351.604 285.574 352.9 284.429 354.294L269.45 358.022C253.782 361.064 238.437 358.294 223.787 354.612C215.875 352.603 208.237 349.723 200.624 346.401C193.567 338.943 187.706 331.093 182.893 323.106C184.167 323.272 185.323 323.541 186.597 323.707C190.349 324.223 194.115 324.517 197.93 324.726C217.19 330.506 238.592 331.869 258.818 328.836C262.906 328.174 266.652 327.315 270.178 326.441L273.228 329.465C279.352 335.868 284.828 342.01 289.723 347.873L287.986 350.296L287.968 350.228ZM78.6626 132.236C80.645 131.27 82.7311 130.42 84.8171 129.571C82.435 130.934 80.0527 132.298 77.8417 133.761C78.0029 133.283 78.2497 132.854 78.4783 132.358L78.6807 132.304L78.6626 132.236ZM379.796 294.649C365.379 309.388 344.702 325.589 320.662 340.3L311.759 345.659C311.533 345.357 311.29 344.988 310.997 344.704L311.527 343.982C319.692 333.166 327.552 322.288 334.463 311.374C344.06 306.988 352.635 301.209 359.55 293.556C365.685 286.764 370.5 279.094 374.104 270.952C376.577 278.842 378.223 286.881 379.882 294.699L379.796 294.649ZM64.9891 167.578C65.134 168.119 65.3644 168.71 65.5092 169.251C63.7689 172.472 62.2489 175.706 61.0351 179.004C61.4789 175.261 62.7685 171.436 64.9348 167.375C64.9348 167.375 64.971 167.511 64.9891 167.578ZM395.336 270.331C394.105 265.732 392.636 261.053 390.775 256.261C390.526 255.602 390.192 254.895 389.876 254.255C390.725 253.375 391.506 252.513 392.355 251.633C393.57 254.279 394.784 256.925 395.931 259.589C396.672 261.275 397.21 263.015 397.883 264.719C397.152 266.582 396.269 268.414 395.336 270.331ZM307.083 378.154L309.537 377.06C309.537 377.06 309.682 377.601 309.822 377.854C308.909 377.954 307.978 377.986 306.997 378.104L307.083 378.154ZM366.029 363.938C362.23 365.682 358.261 367.327 353.931 368.705C347.595 370.695 341.089 372.585 334.37 373.952C332.242 374.377 329.962 374.771 327.835 375.197C327.328 373.303 326.785 371.275 325.972 369.318C342.706 360.264 357.364 349.664 368.944 338.368L380.217 329.98L385.024 325.792C385.586 330.86 386.007 335.676 386.258 340.392C380.4 348.487 373.593 356.546 366.047 364.006L366.029 363.938ZM158.556 68.2608C156.115 69.1331 153.691 70.073 151.304 71.1482C147.264 70.6373 143.29 70.1083 139.353 69.7146C141.541 67.8955 143.644 66.027 145.746 64.1584C150.085 65.2418 154.324 66.4965 158.556 68.2608ZM78.3223 301.647L85.1878 301.907C86.1668 303.674 87.0785 305.459 88.0395 307.159C95.6053 320.568 103.615 333.206 112.148 343.747C115.263 347.551 118.58 351.3 122.014 354.945C117.226 351.373 112.739 347.575 108.571 343.619L99.5912 334.648C91.083 325.55 82.0268 314.135 74.035 301.564C75.407 301.559 76.8647 301.603 78.3898 301.629L78.3223 301.647ZM369.314 384.585C370.083 383.944 370.698 383.271 371.466 382.63C375.184 381.126 378.781 379.436 382.188 377.58C380.665 381.613 378.849 385.362 376.6 388.574C372.83 393.934 368.212 398.29 362.382 401.085C356.434 403.985 348.268 405.886 336.964 406.598L335.236 406.626C337.636 405.33 339.969 404.052 342.302 402.774C351.597 397.527 360.864 391.635 369.382 384.566L369.314 384.585ZM404.028 312.794C403.928 311.879 403.778 311.049 403.678 310.134L403.414 308.61C405.629 306.349 407.825 304.02 409.886 301.728L410.176 302.81C408.184 306.171 406.106 309.482 404.047 312.862L404.028 312.794ZM189.567 55.0148C187.813 55.4851 186.059 55.9554 184.324 56.4934C183.212 55.8494 182.05 55.2912 180.938 54.6472L184.766 54.6352C186.377 54.7106 187.938 54.8717 189.549 54.9471L189.567 55.0148ZM30.9459 194.612L31.0002 194.815C34.7091 201.648 38.436 208.549 42.3473 215.329C41.4426 217.891 40.6055 220.435 39.9394 223.078C36.145 216.195 32.6959 208.712 29.4492 201.175C29.8866 199.028 30.306 196.813 30.8964 194.698L30.9459 194.612ZM38.173 246.456C39.0609 258.685 42.6516 270.479 47.8926 281.685L53.0151 291.908C52.3949 292.292 51.7746 292.676 51.2581 293.177C49.0701 294.996 47.8907 297.342 47.4089 299.863C37.5772 281.77 32.1314 260.616 29.2242 240.303L28.4469 232.538C31.4284 237.465 34.6437 242.184 38.1911 246.523L38.173 246.456ZM220.179 40.2808C211.331 38.015 202.021 36.4531 192.285 35.7303C195.499 34.5057 198.714 33.2811 201.695 32.2641C204.676 31.2471 207.626 30.3835 210.557 29.4523C214.198 30.3603 218.272 31.8046 222.607 33.6861C224.741 34.6359 226.875 35.5858 229.027 36.6032C226.082 37.7554 223.07 38.9257 220.161 40.2132L220.179 40.2808ZM134.517 389.5L120.129 380.312C110.32 373.376 100.449 364.86 90.8652 355.254C101.066 362.303 114.638 370.333 131.377 378.31C142.308 383.497 154.954 388.875 168.751 394.235L178.825 397.839C181.905 399.623 185.052 401.388 187.992 402.919C188.915 403.396 189.838 403.873 190.761 404.35C171.281 406.386 152.294 399.736 134.499 389.433L134.517 389.5ZM272.6 21.9447C271.778 22.3827 270.973 22.8884 270.102 23.4122L261.805 25.6374C260.928 25.8726 260.002 26.1934 259.125 26.4286C258.783 26.2305 258.508 26.0143 258.166 25.8162C255.477 24.1452 252.758 22.6278 250.142 21.2274C253.119 21.0086 256.115 20.8574 259.098 20.9272C263.808 20.9686 268.236 21.3032 272.6 21.9447ZM262.997 427.089C244.078 428.249 230.574 429.116 219.538 428.67C214.418 428.448 209.752 428.033 204.789 427.044C196.868 425.545 186.211 422.459 175.043 418.279C180.865 418.964 186.812 419.036 192.934 418.409C198.143 417.882 203.121 416.764 208.014 415.597C209.295 415.253 210.577 414.909 211.859 414.566C221.52 418.788 231.013 422.113 240.413 424.013C254.27 426.893 268.688 427.012 284.25 424.65C286.26 424.329 288.271 424.007 290.177 423.568L305.983 424.547C302.178 424.916 297.981 425.172 293.563 425.414L263.047 427.003L262.997 427.089ZM463.682 237.214C464.128 243.473 464.52 249.529 464.295 255.17C464.181 262.304 463.309 265.799 459.853 270.713L450.119 282.964C448.512 285.062 447.076 287.259 445.658 289.524C449.224 277.188 451.413 264.569 451.905 251.825L452.036 246.643C455.011 233.451 456.821 220.498 457.435 207.939C458.878 201.174 460.05 194.481 460.652 188.086C460.819 186.012 460.951 183.802 461.1 181.66C462.295 189.095 462.837 195.98 462.777 203.317C462.643 212.269 462.698 224.358 463.749 237.196L463.682 237.214Z" fill="#F6F4F9"/>
<path fill-rule="evenodd" clip-rule="evenodd" d="M392.963 44.2782C391.005 44.3818 389.054 44.5884 387.117 44.8972C386.55 44.9869 385.97 44.9596 385.413 44.8168C384.857 44.6739 384.335 44.4187 383.881 44.0667C383.345 39.7241 382.987 35.279 383.339 35.036C383.96 34.6775 383.995 33.4747 383.116 33.3515C382.575 33.2354 382.01 33.3295 381.535 33.6148L381.489 33.2275C381.469 33.1801 381.443 33.1354 381.412 33.0944C381.858 33.0141 381.13 31.0693 381.412 33.0944C382.171 33.3854 383.045 32.6827 383.59 32.3288C384.134 31.9749 383.756 31.2863 383.241 31.4855L382.173 30.999C382.091 30.6987 381.895 30.4423 381.628 30.2841C381.36 30.1259 381.041 30.0785 380.739 30.1521L379.161 30.5911C378.881 30.6596 378.624 30.8025 378.419 31.0046C378.213 31.2068 378.065 31.4607 377.992 31.7397C377.078 37.9056 375.911 44.1785 380.49 47.9187C380.765 55.809 380.147 63.7051 378.647 71.4561C369.728 69.6515 361.248 78.8495 363.406 87.9513C363.553 88.5392 363.892 89.0614 364.368 89.4357C364.844 89.81 365.431 90.0152 366.037 90.0189C374.935 89.7061 381.866 82.8422 384.796 74.7425C384.931 74.2369 384.917 73.703 384.755 73.2052C384.594 72.7074 384.292 72.2668 383.886 71.9367C384.555 65.5613 384.804 59.1488 384.63 52.7407C384.626 52.2897 384.535 51.278 384.411 49.9699C387.302 50.7829 390.421 49.1576 393.324 49.6486C397.291 50.3127 395.423 62.2339 397.054 65.4706C397.19 65.6986 397.384 65.8872 397.615 66.018C397.846 66.1487 398.108 66.2172 398.373 66.2167C398.639 66.2161 398.9 66.1466 399.13 66.0149C399.361 65.8831 399.554 65.6937 399.69 65.4652C402.394 59.0923 403.13 44.2181 392.963 44.2782Z" fill="black"/>
<path d="M339.484 368.451C338.307 367.251 337.528 365.718 337.252 364.059C336.976 362.4 337.216 360.697 337.94 359.18L352.799 329.047C353.921 327.439 355.581 326.287 357.479 325.8C359.377 325.313 361.386 325.523 363.142 326.393C364.898 327.262 366.284 328.733 367.049 330.539C367.814 332.344 367.907 334.364 367.311 336.232L352.432 366.346C351.846 367.481 351.003 368.464 349.969 369.214C348.936 369.965 347.742 370.464 346.482 370.67C345.222 370.877 343.931 370.785 342.712 370.403C341.494 370.022 340.382 369.36 339.464 368.471L339.484 368.451Z" fill="#FF0000"/>
<path d="M355.829 375.734C354.645 374.535 353.859 372.999 353.58 371.336C353.3 369.673 353.539 367.965 354.265 366.443L369.028 336.214C370.001 334.313 371.678 332.868 373.7 332.186C375.722 331.504 377.93 331.64 379.854 332.563C380.809 333.027 381.661 333.678 382.361 334.478C383.06 335.277 383.592 336.209 383.926 337.218C384.61 339.25 384.471 341.469 383.54 343.399L368.816 373.629C368.352 374.585 367.702 375.438 366.903 376.138C366.104 376.838 365.173 377.371 364.165 377.705C362.135 378.389 359.919 378.251 357.99 377.318C357.192 376.905 356.463 376.371 355.829 375.734Z" fill="#FF0000"/>
<path d="M333.606 364.922C332.429 363.721 331.65 362.188 331.374 360.529C331.098 358.871 331.338 357.167 332.062 355.65L346.921 325.517C348.043 323.909 349.703 322.757 351.601 322.27C353.499 321.783 355.508 321.994 357.264 322.863C359.02 323.733 360.406 325.204 361.171 327.009C361.936 328.814 362.029 330.834 361.433 332.702L346.554 362.816C345.968 363.951 345.125 364.934 344.091 365.685C343.058 366.436 341.864 366.934 340.604 367.141C339.344 367.347 338.053 367.256 336.835 366.874C335.616 366.492 334.504 365.83 333.586 364.941L333.606 364.922ZM356.049 327.236C355.851 327.026 355.615 326.856 355.354 326.734C354.726 326.454 354.015 326.421 353.363 326.643C352.712 326.865 352.169 327.325 351.842 327.931L336.963 358.045C336.683 358.674 336.651 359.386 336.873 360.038C337.095 360.69 337.555 361.233 338.16 361.561C338.788 361.848 339.502 361.886 340.158 361.668C340.813 361.449 341.361 360.99 341.691 360.382L356.493 330.191C356.718 329.696 356.791 329.145 356.702 328.608C356.612 328.071 356.365 327.573 355.991 327.178L356.049 327.236Z" fill="black"/>
<path d="M349.952 372.205C348.768 371.005 347.983 369.469 347.703 367.806C347.423 366.144 347.663 364.435 348.389 362.914L363.151 332.684C364.124 330.783 365.801 329.338 367.823 328.656C369.845 327.974 372.053 328.11 373.977 329.033C374.932 329.497 375.784 330.148 376.484 330.948C377.183 331.748 377.715 332.679 378.049 333.688C378.733 335.72 378.594 337.939 377.663 339.87L362.939 370.099C362.475 371.055 361.825 371.908 361.026 372.608C360.227 373.308 359.296 373.841 358.288 374.175C356.258 374.859 354.042 374.721 352.113 373.788C351.315 373.375 350.586 372.841 349.952 372.205ZM372.279 334.403C372.072 334.204 371.838 334.035 371.584 333.901C370.954 333.608 370.236 333.567 369.577 333.785C369.251 333.891 368.949 334.062 368.69 334.287C368.431 334.513 368.221 334.789 368.072 335.099L353.309 365.328C353.029 365.957 352.997 366.669 353.219 367.321C353.441 367.972 353.9 368.516 354.506 368.844C354.811 368.999 355.144 369.091 355.486 369.115C355.827 369.138 356.17 369.092 356.493 368.979C357.153 368.747 357.699 368.269 358.018 367.646L372.78 337.416C373.006 336.921 373.079 336.37 372.99 335.833C372.9 335.296 372.653 334.798 372.279 334.403Z" fill="black"/>
<path fill-rule="evenodd" clip-rule="evenodd" d="M83.2029 263.614C87.1781 264.166 90.7264 267.357 92.127 271.689C92.6367 273.266 91.7721 274.957 90.1957 275.466C88.6193 275.976 86.9281 275.11 86.4183 273.534C85.6203 271.065 83.7543 269.748 82.3793 269.557C81.747 269.47 81.2381 269.606 80.8216 269.922C80.3875 270.252 79.789 270.983 79.4225 272.542C78.7362 275.461 79.7124 277.959 81.6355 280.962C82.1143 281.71 82.631 282.458 83.18 283.246C83.242 283.335 83.3044 283.424 83.3673 283.514C83.8514 284.208 84.3598 284.937 84.8456 285.672C85.9372 287.324 87.0371 289.184 87.7369 291.251C89.5503 296.475 89.2806 301.055 87.2614 304.491C85.2414 307.928 81.7248 309.76 78.0894 309.872C74.4521 309.984 70.7214 308.388 68.0665 305.126C65.4063 301.858 63.9778 297.129 64.4003 291.138C64.5168 289.485 65.951 288.24 67.6037 288.357C69.2564 288.474 70.5017 289.908 70.3851 291.561C70.0443 296.395 71.2302 299.51 72.7189 301.339C74.2129 303.174 76.1658 303.928 77.9035 303.874C79.6432 303.821 81.1932 302.973 82.0885 301.45C82.9829 299.928 83.4782 297.27 82.0658 293.208L82.057 293.182C81.6059 291.846 80.8403 290.493 79.8406 288.98C79.3991 288.312 78.9359 287.648 78.4467 286.946C78.3841 286.856 78.3212 286.766 78.2578 286.675C77.7084 285.887 77.1317 285.053 76.5834 284.197C74.3981 280.784 72.3266 276.506 73.582 271.167C74.1863 268.597 75.3947 266.508 77.1936 265.142C79.0101 263.764 81.1602 263.331 83.2029 263.614Z" fill="black"/>
<path fill-rule="evenodd" clip-rule="evenodd" d="M85.4581 253.318C87.0944 253.577 88.2109 255.114 87.9518 256.751L86.5468 265.623C86.2877 267.26 84.7511 268.376 83.1147 268.116C81.4783 267.857 80.3618 266.319 80.621 264.683L82.0259 255.811C82.285 254.174 83.8217 253.058 85.4581 253.318Z" fill="black"/>
<path fill-rule="evenodd" clip-rule="evenodd" d="M77.544 306.635C79.1804 306.895 80.2969 308.432 80.0377 310.068L78.9922 316.671C78.733 318.308 77.1964 319.424 75.56 319.164C73.9236 318.905 72.8072 317.367 73.0663 315.731L74.1118 309.128C74.371 307.492 75.9076 306.376 77.544 306.635Z" fill="black"/>
<path d="M75.7961 140.26C75.5658 140.286 75.3332 140.286 75.1029 140.26C74.5891 140.131 74.1202 139.862 73.7473 139.483C73.3744 139.104 73.1117 138.629 72.9877 138.11C70.9614 129.582 64.2247 101.167 62.1095 93.0327C61.9569 92.5156 61.9494 91.9661 62.0878 91.445C62.2261 90.9239 62.505 90.4516 62.8934 90.0805C63.2818 89.7094 63.7647 89.454 64.2883 89.3426C64.8119 89.2312 65.356 89.2682 65.86 89.4494L104.129 102.976C104.564 103.141 104.953 103.41 105.262 103.759C105.572 104.109 105.793 104.529 105.907 104.983C106.015 105.433 106.017 105.903 105.912 106.354C105.807 106.806 105.598 107.226 105.302 107.581L77.9291 139.256C77.663 139.565 77.3357 139.813 76.9682 139.986C76.6008 140.159 76.2015 140.252 75.7961 140.26Z" fill="#FF0000"/>
<path d="M77.1099 134.26C76.8744 134.286 76.6365 134.286 76.4009 134.26C75.8754 134.131 75.3959 133.862 75.0145 133.483C74.6331 133.104 74.3645 132.629 74.2377 132.11C72.1653 123.582 65.2755 95.1666 63.1123 87.0327C62.9562 86.5156 62.9485 85.9661 63.09 85.445C63.2315 84.9239 63.5167 84.4516 63.914 84.0805C64.3112 83.7094 64.805 83.454 65.3406 83.3426C65.8761 83.2312 66.4325 83.2682 66.948 83.4494L106.087 96.9762C106.532 97.1412 106.929 97.4099 107.246 97.7594C107.562 98.1088 107.789 98.5286 107.905 98.9828C108.016 99.4333 108.017 99.9031 107.91 100.354C107.803 100.806 107.589 101.226 107.287 101.581L79.2914 133.256C79.0193 133.565 78.6845 133.813 78.3087 133.986C77.9329 134.159 77.5245 134.252 77.1099 134.26ZM66.8935 87.2477C69.2385 96.2058 75.1466 120.608 77.419 129.924L103.887 100.022L66.8935 87.2477Z" fill="#141519"/>
<ellipse cx="222.995" cy="178.199" rx="69.78" ry="69.8016" fill="#ACAAFA"/>
<path d="M206.661 216.918C206.229 215.905 207.71 215.235 208.51 215.991C216.391 223.442 231.145 223.585 239.156 216.287C239.971 215.545 241.442 216.239 240.991 217.245C234.773 231.113 212.616 230.907 206.661 216.918Z" fill="#15161A"/>
<path d="M291.088 177.571C291.088 174.128 291.043 170.8 290.689 167.473L290.489 165.868C290.401 165.309 290.512 166.147 290.423 165.542L290.268 164.472L289.891 162.378L289.426 160.47L288.629 157.841L287.034 153.397L286.613 152.233L286.391 151.721L285.749 150.116L285.062 148.487L283.401 145.044L282.714 143.764L282.382 143.182L281.939 142.484L281.163 141.042L280.432 139.669L279.568 138.203C278.97 137.133 278.195 135.713 276.977 134.248L276.245 133.317L275.315 132.2L274.562 131.432L273.698 130.339C273.565 130.199 273.609 130.246 273.654 130.339L272.768 129.362C272.768 129.362 272.723 129.315 272.745 129.362L271.749 128.152L270.353 126.523L268.979 124.871L267.429 123.335L266.454 122.498L265.324 121.66L264.926 121.381L263.973 120.66L263.109 120.101L262.445 119.706L261.204 119.008L259.831 118.379L258.058 117.519L257.084 117.007L254.004 115.238L252.542 114.471L249.574 113.074L247.824 112.47L247.381 112.33L245.564 111.213L243.349 110.166L241.799 109.654L238.586 108.468L238.276 108.374L237.567 108.095L236.482 107.746L234.267 107.072L233.58 106.862L232.539 106.606L230.634 106.141L229.061 106.071C229.305 106.071 229.615 106.071 229.305 106.071H226.735C222.615 106.071 219.27 109.584 219.27 113.912C219.27 118.24 222.615 121.753 226.735 121.753H228.596C228.596 121.753 228.862 121.823 229.238 121.916L230.036 122.102L231.631 122.567L232.805 122.963L233.381 123.196L234.333 123.498L237.169 124.545L238.431 124.941C238.653 125.034 238.276 124.871 238.609 125.057C239.007 125.266 239.517 125.732 241.023 126.476L243.238 127.361L244.457 127.779L245.564 128.291L247.204 129.152L249.884 130.688L251.723 131.642L253.606 132.572L254.492 132.968L255.068 133.294L255.644 133.619L255.732 133.689L256.53 134.294L257.239 134.783L257.527 135.015L258.236 135.713L258.812 136.435L260.805 138.785L261.558 139.715L262.533 140.762L262.843 141.088L263.109 141.437C264.084 142.717 263.973 142.368 264.283 142.74L265.059 143.694L265.723 144.555L266.653 146.091L267.606 147.719L268.138 148.743L269.046 150.418L269.6 151.349L269.688 151.512L270.264 152.582L271.549 155.211L271.992 156.258L272.59 157.771L272.812 158.283L273.078 159.027L274.584 163.169L275.049 164.728L275.293 165.775L275.492 166.938L275.625 167.822C275.736 168.613 275.67 168.008 275.692 168.264L275.802 169.172C276.068 171.591 276.135 174.314 276.113 177.455V184.086C276.113 186.296 276.002 188.088 275.669 189.81L275.049 193.09L274.761 194.766L274.163 197.232L273.853 198.442L273.609 198.954L273.056 200.303L272.413 201.839L272.147 202.444L271.638 203.654L271.328 204.422L270.995 205.306L270.818 205.678L270.087 207.167L269.179 208.912L268.78 209.75L268.714 209.913C268.714 209.913 268.869 209.564 268.669 209.866L268.381 210.238L268.116 210.587L266.986 211.821L266.255 212.681L265.502 213.472L264.505 214.613L263.685 215.473L261.824 217.73L261.426 218.149L261.115 218.405L260.384 218.708C258.944 219.359 258.634 219.685 258.546 219.755L256.929 220.732L255.156 222.035L254.027 222.872L253.296 223.361L252.498 223.966L250.659 225.036L249.33 225.734L248.001 226.479L246.827 227.084L245.719 227.619L244.988 227.945L243.194 228.689L242.773 228.875L242.242 228.968L241.023 229.248C240.735 229.317 239.805 229.434 238.365 230.015L236.947 230.713L235.707 231.295L234.444 231.97L233.403 232.552L232.982 232.761L232.849 232.808L230.877 233.599L229.194 234.599L228.13 235.367L228.02 235.46L227.975 235.507L227.466 235.925C227.222 236.158 226.536 235.483 225.384 239.02C225.339 239.183 225.295 239.299 225.229 239.485C225.184 239.671 225.162 239.857 225.118 240.044C225.073 240.23 225.007 240.393 224.985 240.555C224.985 240.625 224.985 240.718 224.985 240.788C224.941 241.067 224.941 241.347 224.941 241.649C224.941 241.882 224.941 242.138 224.941 242.37C224.941 242.626 225.007 242.906 225.051 243.161C225.096 243.417 225.118 243.65 225.184 243.883C225.251 244.115 225.339 244.348 225.406 244.581C225.494 244.813 225.561 245.046 225.672 245.279C225.782 245.511 225.893 245.721 226.026 245.93C226.159 246.14 226.27 246.349 226.403 246.558C226.558 246.768 226.713 246.954 226.868 247.14C227.023 247.303 227.156 247.489 227.311 247.652L227.355 247.699C227.532 247.861 227.732 248.001 227.909 248.164C228.086 248.303 228.263 248.466 228.463 248.583L228.574 248.652C228.751 248.769 228.95 248.839 229.127 248.932C229.327 249.025 229.526 249.141 229.748 249.234C229.814 249.257 229.881 249.281 229.969 249.304C230.013 249.304 230.036 249.351 230.08 249.351C230.235 249.397 230.39 249.42 230.567 249.467H230.656C230.811 249.537 230.966 249.583 231.121 249.63H231.32C235.241 250.328 234.621 249.374 234.82 249.304C234.909 249.281 234.821 249.304 234.732 249.327C234.732 249.327 234.71 249.327 234.599 249.351C234.643 249.351 234.665 249.327 234.71 249.304C235.064 249.188 235.396 249.048 235.729 248.862C235.795 248.815 235.884 248.769 235.95 248.722C236.26 248.536 236.571 248.35 236.859 248.117L237.324 247.792L239.007 247.163L240.336 246.465L241.4 245.86L242.397 245.325L243.15 245C244.435 244.418 243.15 244.906 243.659 244.697L244.368 244.557L245.099 244.395L246.45 244.115C247.824 243.766 248.311 243.464 248.533 243.371L250.682 242.487L251.634 242.068L253.34 241.254L254.691 240.555L255.755 239.951L257.527 239.02C258.501 238.485 259.808 237.833 261.315 236.67L261.647 236.391L262.467 235.856L263.995 234.739L264.748 234.134L265.812 233.482L266.366 233.133C266.521 233.063 266.72 232.994 266.986 232.877L268.979 231.807C269.223 231.644 270.464 230.76 271.638 229.62L272.79 228.41L274.451 226.386L275.315 225.455L276.135 224.524L277.331 223.245L277.863 222.593L279.413 220.871L280.277 219.731L280.831 218.94C281.03 218.638 281.473 218.126 282.094 216.823L282.404 216.148L283.334 214.357L283.999 213.007L284.818 211.146L285.04 210.564L285.284 209.982L285.771 208.842L286.081 208.121L286.724 206.562L287.012 205.841L287.743 204.142L288.54 201.35L289.36 197.907L289.626 196.325L290.268 192.928C290.822 189.973 290.977 187.087 290.977 184.249V177.688L291.088 177.571ZM237.302 247.792C237.302 247.792 237.191 247.885 237.102 247.954C237.102 247.954 237.124 247.931 237.146 247.908C237.235 247.838 237.324 247.745 237.412 247.652C237.324 247.745 237.279 247.792 237.279 247.792H237.302ZM266.498 233.087H266.543L266.809 232.947C267.052 232.854 266.809 232.947 266.498 233.087Z" fill="#918FFA"/>
<path d="M295.585 178.99L295.518 174.081C295.585 171.336 295.23 169.288 294.765 167.264C294.366 165.845 294.078 163.215 293.591 160.726C293.148 158.12 292.594 155.84 291.907 153.513L290.246 148.999L288.806 145.695L287.278 142.926C286.99 142.391 286.458 141.111 286.015 139.646L285.129 136.737C284.486 134.76 283.423 133.363 282.537 132.2L280.277 128.896C279.347 127.43 278.306 126.22 277.309 125.267L275.293 122.917L273.875 121.148L272.723 120.031L271.704 119.24L271.195 118.868C269.533 117.658 268.071 117.565 267.54 117.379C267.163 117.216 266.321 116.262 264.749 115.075C262.711 113.517 260.606 112.772 259.144 112.097L256.419 111.027C255.356 110.655 253.938 110.282 252.321 110.096L249.906 109.957L249.375 109.887L247.47 109.235L246.052 108.537L245.011 108.188L243.77 107.909L239.362 107.583L236.571 107.63H235.397L234.688 107.583L233.912 107.537L233.071 107.49H231.919C231.542 107.304 231.077 107.118 230.434 107.002C228.817 106.816 226.292 106.839 223.656 107.118C220.178 107.467 217.01 108.095 214.13 108.84L205.004 110.957C202.478 111.539 200.285 111.981 198.291 112.725L193.595 114.471L190.139 116.006C187.57 117.193 185.354 118.17 183.183 119.822C181.943 120.776 180.99 121.753 180.082 122.707L177.069 125.685C175.607 127.128 174.433 127.942 173.215 129.082C171.775 130.385 170.18 132.177 168.563 134.085L165.329 138.04L163.999 139.971L162.272 143.275L161.009 145.532L158.661 149.557C157.797 151.256 156.866 153.699 155.892 156.561L154.031 162.634C153.344 165.1 152.901 167.124 152.525 169.125L151.882 173.686C151.594 176.105 151.173 178.99 151.04 181.689C150.952 183.993 150.996 186.227 151.306 188.484C151.55 190.135 151.949 191.694 152.347 193.346L153.676 199.466C154.275 202.514 154.939 204.957 156.268 207.237C157.088 208.656 157.93 210.145 158.639 211.844L159.746 214.496C160.743 216.8 161.873 218.359 162.936 219.638L166.148 224.059C166.946 225.316 167.699 226.642 168.917 227.968C170.202 229.341 171.775 230.271 173.303 231.295L176.87 234.041C177.734 234.785 178.554 235.46 179.639 236.111L183.538 238.066C186.285 239.508 187.791 240.602 189.63 241.672C191.623 242.719 194.016 243.441 196.763 243.743C198.291 243.883 199.643 244.046 200.595 244.348L204.472 245.535L208.282 246.861L211.14 247.559C212.602 247.954 214.197 248.722 216.323 248.908L220.2 249.002H223.833C225.738 248.839 227.289 248.28 228.286 248.164C229.371 248.094 230.457 248.21 231.653 248.443L233.935 248.769C235.507 248.885 237.014 248.513 238.409 247.908C240.669 246.884 242.773 246.163 245.099 245.814L249.353 245.465L251.501 245.395L253.362 245.023C254.514 244.674 255.622 244.162 256.752 243.51L258.457 242.417L261.559 240.602L263.995 239.02L265.834 237.647L269.644 234.809L273.587 231.854C275.315 230.504 276.711 229.155 277.996 227.596L280.61 223.896L283.622 219.987L286.635 214.543L288.23 211.076L290.755 204.98C291.575 203.188 292.129 201.513 292.483 199.698L293.746 192.811L294.411 188.344C294.92 185.878 295.54 183.97 295.651 181.573V178.944L295.585 178.99ZM289.338 179.06V181.573C289.316 182.713 288.917 184.435 288.452 187.087L287.743 192.043L286.901 198.698C286.702 200.117 286.414 201.211 285.815 202.7L283.379 209.005L282.116 212.007L279.103 217.172L276.777 220.662L274.008 224.152C273.011 225.362 271.904 226.409 270.464 227.549L266.609 230.132L262.6 232.994L260.916 234.18L258.679 235.576L255.422 237.484L253.805 238.508L251.679 239.532L250.793 239.741L249.043 239.857C247.558 239.927 245.941 239.997 244.213 240.253C241.289 240.695 238.697 241.603 236.15 242.719C235.419 243.045 234.732 243.161 234.245 243.138L232.428 242.789C231.033 242.533 229.46 242.324 227.843 242.463C225.96 242.533 224.365 242.952 223.346 242.952H220.001L216.545 243.045C215.548 242.999 214.152 242.463 212.247 242.045L209.811 241.509C208.415 240.998 207.13 240.23 205.269 239.811L202.279 238.973C200.617 238.345 198.889 238.043 197.139 237.81C195.101 237.577 193.351 236.996 192.022 236.274L185.82 232.994L182.142 231.086L180.126 229.573L176.006 226.572C174.433 225.548 173.082 224.687 172.417 224.013C171.664 223.291 170.955 222.291 170.069 221.081L166.525 216.358C165.594 215.194 164.886 214.217 164.11 212.402L163.069 209.82C162.249 207.795 161.319 206.05 160.455 204.538C159.547 202.956 159.082 201.257 158.55 198.442L157.309 192.16L156.49 187.739C156.268 185.878 156.246 184.039 156.357 181.992C156.468 179.712 156.889 176.943 157.199 174.453L157.841 170.312L159.281 164.355L161.098 158.585C162.006 155.886 162.914 153.629 163.556 152.373L165.727 148.58L167.012 146.207L168.651 143.089L169.582 141.716L172.595 137.994C174.123 136.156 175.629 134.48 176.648 133.55C177.579 132.735 178.997 131.805 180.857 130.06L183.826 126.895L186.307 124.475C187.88 123.242 189.652 122.358 192.177 121.148L195.367 119.706L199.931 117.891C201.459 117.286 203.475 116.821 206.089 116.192L215.26 113.493C217.918 112.632 220.843 111.911 224.055 111.446C224.476 111.376 224.874 111.353 225.295 111.306C225.118 112.074 225.583 112.865 226.314 113.051L227.289 113.447C227.555 113.61 227.865 113.703 228.175 113.749L228.707 113.842C228.884 113.889 229.083 113.912 229.26 113.912H229.571L230.102 113.959H230.457L231.166 114.005L231.941 114.052L232.716 114.098L233.469 114.145L234.245 114.191L235.042 114.238H239.096L242.618 114.633L243.194 114.796L243.726 114.982L245.166 115.587L247.824 116.425L249.308 116.681L251.634 116.821C252.631 116.914 253.717 117.193 254.359 117.425L256.685 118.31C258.413 119.008 260.052 119.543 261.182 120.334C262.046 120.939 263.131 122.405 265.302 123.219L267.65 124.01L268.204 124.452L268.736 124.964L269.445 125.709L270.464 126.942C271.306 128.035 272.192 129.082 273.122 129.943C273.831 130.641 274.496 131.432 275.094 132.433C275.869 133.713 276.733 135.132 277.796 136.505C278.638 137.505 279.148 138.133 279.436 138.855L280.189 141.623C280.698 143.415 281.274 144.974 281.961 146.207L283.224 148.557L284.42 151.605L285.838 155.63C286.48 157.724 287.012 159.679 287.433 161.912C287.787 164.099 287.92 166.729 288.518 169.288C289.005 170.963 289.316 172.057 289.36 174.058L289.293 179.153L289.338 179.06Z" fill="#15161A"/>
<path fill-rule="evenodd" clip-rule="evenodd" d="M255.263 75.5037C256.2 75.9078 256.797 76.8404 256.772 77.8601C256.689 81.2724 256.446 86.5873 255.987 91.4658C255.808 93.3654 255.594 95.2236 255.339 96.8909C257.189 95.8873 259.236 94.8217 261.316 93.8083C265.606 91.7178 270.305 89.7151 273.732 89.0684C274.734 88.8792 275.751 89.3181 276.301 90.1772C276.851 91.0363 276.824 92.1434 276.232 92.9745L267.045 105.884L274.195 105.884C275.282 105.884 276.245 106.586 276.576 107.622C276.908 108.657 276.533 109.787 275.648 110.419L270.058 114.409L276.032 120.879C276.969 121.893 276.906 123.475 275.891 124.412C274.877 125.348 273.295 125.285 272.359 124.271L264.461 115.717C263.974 115.19 263.737 114.479 263.811 113.765C263.884 113.051 264.261 112.403 264.845 111.986L266.389 110.884L262.198 110.884C261.262 110.884 260.405 110.362 259.976 109.53C259.547 108.698 259.619 107.697 260.161 106.935L267.671 96.381C266.33 96.9608 264.925 97.6116 263.506 98.3031C259.286 100.359 255.192 102.647 252.728 104.117C251.746 104.702 250.492 104.547 249.682 103.74C248.872 102.933 248.713 101.679 249.296 100.696C249.504 100.344 249.848 99.2836 250.192 97.3688C250.514 95.5796 250.786 93.3665 251.009 90.9969C251.225 88.7006 251.393 86.2955 251.517 84.0473L239.839 95.6124C239.592 95.8575 239.379 96.1388 239.197 96.4456C239.279 96.9217 239.347 97.4007 239.401 97.8821C239.55 99.2072 239.613 100.367 239.594 101.373C239.577 102.2 239.509 102.98 239.328 103.615C239.248 103.9 239.071 104.431 238.655 104.91C238.426 105.173 238.057 105.498 237.517 105.69C236.944 105.894 236.353 105.883 235.835 105.72C234.942 105.438 234.474 104.785 234.318 104.551C234.105 104.234 233.962 103.906 233.864 103.64C233.662 103.096 233.522 102.461 233.436 101.815C233.236 100.322 233.244 98.0864 233.979 95.8976C233.045 92.0356 231.045 88.2545 228.687 84.9114C226.99 82.5065 225.158 80.3995 223.52 78.7347C223.264 79.5538 222.977 80.4125 222.673 81.2867C221.767 83.8868 220.628 86.8386 219.466 89.7163C220.611 91.7312 221.54 93.7481 221.959 95.5655C221.995 95.7206 222.028 95.8734 222.058 96.0242C222.227 96.8722 222.323 97.7389 222.214 98.5141C222.127 99.1345 221.673 100.911 219.742 101.207C218.971 101.325 218.334 101.105 217.947 100.916C217.546 100.72 217.221 100.465 216.977 100.24C216.486 99.7893 216.059 99.2191 215.704 98.6392C214.584 96.8058 213.467 93.62 214.034 90.3796C212.939 88.6448 211.642 86.8082 210.254 84.9724C209.144 83.505 207.987 82.052 206.844 80.6684C207.614 88.6032 206.068 96.5124 203.586 104.771C203.294 105.742 202.444 106.441 201.435 106.54C200.425 106.638 199.456 106.117 198.982 105.22C198.077 103.508 196.7 100.863 195.466 98.4047C195.453 98.4638 195.439 98.5232 195.426 98.5829C194.486 102.767 193.436 108.072 192.755 111.685C192.568 112.677 191.803 113.459 190.815 113.668L187.851 114.295L190.939 115.113C192.273 115.466 193.069 116.835 192.715 118.169C192.362 119.504 190.993 120.299 189.658 119.946L176.413 116.438C175.294 116.141 174.525 115.115 174.554 113.958C174.584 112.8 175.404 111.814 176.537 111.575L188.154 109.12C188.826 105.624 189.725 101.148 190.547 97.4872C191.023 95.3693 191.486 93.4622 191.874 92.1693C192.051 91.5792 192.27 90.9115 192.531 90.4221C192.603 90.2876 192.724 90.079 192.901 89.8649C193.027 89.7125 193.45 89.2169 194.203 88.9959C194.639 88.8681 195.157 88.8427 195.686 89.0076C196.196 89.1666 196.56 89.4529 196.794 89.7014C197.21 90.1428 197.366 90.6197 197.419 90.7938C197.485 91.0093 197.739 91.6206 198.21 92.6296C198.654 93.5791 199.224 94.7434 199.843 95.9789C200.043 96.3785 200.248 96.7842 200.454 97.1909C202.5 88.4445 202.817 80.5452 199.931 72.5722C199.528 71.4594 199.961 70.2167 200.968 69.5946C201.975 68.9725 203.28 69.1416 204.095 69.9996C206.701 72.7441 210.694 77.265 214.242 81.9565C214.889 82.8123 215.525 83.6781 216.137 84.5437C216.8 82.8323 217.42 81.1673 217.951 79.642C218.909 76.8907 219.497 74.8228 219.622 73.7485C219.728 72.8422 220.319 72.0657 221.165 71.7224C222.01 71.3791 222.975 71.5237 223.683 72.0996C226.072 74.0437 229.636 77.5836 232.772 82.029C234.603 84.6234 236.337 87.5965 237.593 90.8002L252.513 76.0229C253.238 75.3051 254.326 75.0996 255.263 75.5037ZM192.645 92.2792C192.642 92.2716 192.64 92.2639 192.638 92.2564L192.639 92.2593C192.64 92.2646 192.642 92.2712 192.645 92.2792ZM238.561 101.926C238.561 101.926 238.56 101.923 238.558 101.917C238.56 101.922 238.561 101.925 238.561 101.926Z" fill="black"/>
<ellipse cx="256.57" cy="176.686" rx="26.3925" ry="25.4176" fill="white"/>
<ellipse cx="191.688" cy="177.791" rx="25.2928" ry="24.3125" fill="white"/>
<path d="M206.304 174.634L206.194 173.882L206.084 172.622L205.93 171.981C205.908 171.849 205.864 171.738 205.798 171.606L205.732 171.495L205.468 170.744L205.116 169.904L204.874 169.373L204.588 168.843L204.456 168.578L203.972 167.826C203.554 167.185 203.07 166.765 202.653 166.389L202.037 165.859L201.377 165.328L200.629 164.842L200.101 164.533L199.442 164.245C198.518 163.892 197.55 163.627 196.406 163.45L194.691 163.295C193.701 163.295 192.491 163.383 191.062 163.892C190.38 164.157 189.522 164.511 188.467 165.13L187.081 166.168L187.015 166.235C186.663 166.257 186.333 166.412 186.069 166.677L185.849 166.942C185.849 166.942 185.783 167.052 185.761 167.119C185.717 167.207 185.651 167.296 185.607 167.384C185.563 167.472 185.563 167.583 185.541 167.671C185.541 167.738 185.497 167.804 185.497 167.87C185.497 167.87 185.497 167.915 185.497 167.937C185.497 167.959 185.497 168.003 185.497 168.025L185.321 168.202L185.036 168.467L184.574 168.732L183.936 169.285L183.584 169.55L182.66 170.412L182.44 170.699L181.956 171.296L181.473 171.849L180.571 173.086C180.065 173.882 179.647 174.877 179.273 175.916C178.789 177.352 178.613 178.833 178.789 180.247C178.833 181.154 179.075 181.927 179.273 182.657L179.471 183.386L179.823 184.381L180.241 185.243L180.615 185.817L181.121 186.525L181.473 187.011L181.627 187.21L182.396 188.204L183.1 188.956L184.706 190.193L185.431 190.547L186.113 190.879L186.531 191.078L187.367 191.498C188.862 192.072 190.27 192.05 191.502 192.028L192.689 191.918L194.119 191.873L195.549 191.719L196.318 191.498L197.088 191.21L197.99 190.724L198.606 190.37L199.046 190.083L200.299 189.332L201.267 188.602L201.927 188.028L202.543 187.497L203.334 186.679L203.84 185.994L204.676 184.469L205.512 182.016L205.996 180.292L206.194 179.452L206.436 177.838V175.606L206.326 174.634H206.304Z" fill="#15161A"/>
<path d="M270.196 173.108L269.756 171.716L269.36 170.743L268.656 169.638L268.304 169.108L267.996 168.622L267.358 167.738C266.699 166.92 265.577 165.947 263.971 165.351C262.916 164.997 261.64 164.688 259.969 164.444L259.111 164.4L257.791 164.312L256.537 164.4L255.856 164.489C255.724 164.511 255.57 164.555 255.438 164.599C255.328 164.643 255.196 164.71 255.086 164.754C254.998 164.754 254.932 164.71 254.844 164.71C254.558 164.71 254.294 164.82 254.074 164.975H253.612L252.271 165.373L251.633 165.616L250.709 166.124L250.005 166.566C249.434 167.008 249.016 167.517 248.73 167.914C247.938 168.909 247.366 169.992 246.816 171.009L245.848 172.755L245.387 173.816C245.123 174.523 245.101 175.164 245.079 175.496L244.969 177.75V178.811L245.343 180.513L245.607 181.22L245.848 181.795L246.266 182.524L246.662 183.187L246.97 183.718L247.3 184.292L247.608 184.801L248.07 185.508L248.598 186.37L249.28 187.254L250.247 188.182L251.237 188.735C252.711 189.376 254.316 189.972 255.988 190.216C256.076 190.216 256.142 190.216 256.23 190.216L256.515 190.326C257.505 190.658 258.495 190.636 259.177 190.503C259.683 190.415 260.342 190.238 260.958 189.95C261.156 189.906 261.354 189.862 261.574 189.818L261.838 189.729L263.29 189.177L263.949 188.779L264.609 188.359L265.093 187.983L265.753 187.475L266.413 186.878L266.765 186.525L267.204 186.06L268.062 185.176L268.612 184.469L269.228 183.408L269.756 182.215L269.976 181.552C270.13 180.911 270.46 180.093 270.635 179.098C270.921 177.927 270.833 176.844 270.811 175.96C270.811 174.81 270.482 173.86 270.218 173.131L270.196 173.108Z" fill="#15161A"/>
<path d="M218.092 169.705L217.806 168.887L217.652 168.224L217.476 167.296L217.212 166.544L216.816 165.417L216.398 164.555L215.717 163.295L214.749 161.726L214.551 161.461L214.155 160.775L213.715 160.112L213.231 159.295L212.176 158.035L210.438 156.554L209.448 155.847L208.349 155.139L207.667 154.808L207.051 154.366L206.567 153.968L205.797 153.415L204.72 152.774L203.444 152.288L201.069 151.714L200.387 151.581L199.375 151.338L198.276 151.183L197.286 151.073H196.494L193.525 150.763L191.655 150.697H190.402L189.588 150.807L188.312 151.05L186.927 151.581L186.333 151.802C186.003 151.935 185.717 152.133 185.475 152.399L185.277 152.598L184.705 152.973C183.848 152.995 183.012 153.305 182.286 153.636C180.747 154.366 178.943 155.515 176.92 156.753L174.324 158.742L173.247 159.781L172.433 160.621L171.685 161.439L170.981 162.212C168.958 164.621 166.737 167.406 165.615 170.677C164.691 173.33 164.339 175.739 164.251 177.861C164.163 179.518 164.163 181.22 164.383 183.01C164.603 184.734 165.197 186.193 165.835 187.475L166.803 189.398L167.286 190.37L167.704 191.166L168.166 192.05L168.562 192.625L168.958 193.155L169.442 193.796L170.783 195.299L171.553 196.117L171.971 196.603L172.367 197.023L172.895 197.576L173.775 198.46L174.214 198.858L175.16 199.609L175.754 200.051C177.733 201.444 179.823 202.306 182.286 203.101C184.881 203.831 187.301 203.61 189.654 203.588C192.007 203.521 194.273 203.588 196.802 203.455C198.759 203.278 200.585 202.615 202.234 201.753L204.676 200.339L205.687 199.543L207.645 198.062L208.525 197.377L209.404 196.67L210.284 195.918L210.812 195.388L212.132 193.885L212.55 193.398L213.055 192.846L213.473 192.36L213.825 191.984L214.287 191.365L214.441 191.188C215.321 190.017 215.959 188.823 216.486 187.519L217.168 185.574L217.52 184.602L217.828 183.541L217.982 182.922C218.62 180.402 219.038 177.993 218.95 175.429C218.906 174.059 218.95 172.446 218.4 170.677L218.114 169.683L218.092 169.705ZM213.979 181.927L213.803 182.59L213.583 183.497L213.363 184.337L212.791 186.06C212.374 187.121 211.912 187.939 211.252 188.845L210.9 189.354L210.812 189.553L210.504 189.928L210.284 190.216L209.624 190.901L209.228 191.365L207.997 192.647L207.689 192.956L206.919 193.553L206.171 194.128L205.204 194.791L203.312 196.117L202.322 196.714L200.387 197.664C199.023 198.217 197.726 198.548 196.582 198.526C194.405 198.57 192.205 198.372 189.61 198.327C187.169 198.327 185.233 198.416 183.65 197.951C181.45 197.399 179.933 196.913 178.371 195.984L177.821 195.653L177.008 195.145L176.81 194.99L176.216 194.481L175.71 193.929L175.292 193.465L174.83 192.978L173.928 192.117L172.719 190.945L172.367 190.525L171.949 190.017L171.861 189.906L171.443 189.111L171.069 188.403L170.519 187.365L169.596 185.663C169.068 184.558 168.738 183.585 168.628 182.502C168.474 181.043 168.496 179.585 168.628 178.148C168.804 176.358 169.2 174.479 170.058 172.313C170.937 170.125 172.851 167.826 174.94 165.594L175.49 164.953L176.392 163.98L176.854 163.428L177.799 162.566L180.109 160.665L184.376 156.841L184.683 156.642L186.619 156.244H186.663C186.993 156.333 187.367 156.333 187.697 156.267L188.004 156.2L189.39 156.156H191.062L191.743 156.2L193.239 156.267L196.032 156.377L196.89 156.466L197.792 156.554L198.298 156.598L199.177 156.819L200.079 157.018L201.641 157.394L202.498 157.747L203.136 158.057L203.51 158.256L203.752 158.411C204.016 158.61 204.5 159.074 205.402 159.516L206.061 159.781L206.743 160.068L207.271 160.378L208.767 161.704L209.624 162.544L209.91 162.787L210.394 163.339L210.702 163.715L211.076 164.312L212 165.682L212.593 166.522L212.901 167.097L213.275 167.981L213.473 168.511L213.649 169.064L213.891 169.97L214.155 170.832L214.463 171.937C214.793 172.954 214.815 174.103 214.859 175.518C214.925 177.617 214.573 179.54 213.979 181.883V181.927Z" fill="#15161A"/>
<path d="M283.612 173.727L283.546 172.445C283.458 171.296 283.26 170.169 283.018 169.108L282.776 168.113L282.358 166.964L281.896 165.992L281.588 165.439L281.192 164.71L280.686 163.936L279.719 162.72L279.477 162.3L279.103 161.682L278.289 160.731L277.453 159.914L276.772 159.206L275.54 158.101L275.298 157.969L275.078 157.77L274.484 157.173L273.362 156.134L271.977 155.117L271.449 154.764L270.525 154.078L270.063 153.725L269.14 153.018C268.194 152.465 267.116 151.714 265.819 151.183C264.279 150.476 262.915 150.365 261.75 150.1L259.792 149.68L258.231 149.371L256.845 149.128H256.053L254.932 149.061C254.206 149.061 253.26 149.017 251.853 149.282L250.137 149.857L248.136 150.299L246.706 150.763L245.496 151.294L244.331 152.001L243.099 152.929C242.923 153.062 242.791 153.239 242.659 153.415C241.406 154.123 240.196 155.117 238.876 156.289L235.511 159.715L233.862 161.549L233.334 162.278L232.96 162.942L232.564 163.715L232.168 164.776L230.827 168.246L230.255 170.324L229.969 172.689L229.925 173.595L229.881 174.722V175.584L229.947 177.396V179.408L230.101 181.198L230.387 182.325L230.497 182.745L230.673 183.452L230.981 184.624L231.332 186.259L231.596 187.563L231.86 188.337L232.146 189L232.498 189.752L233.774 191.895L235.995 194.879C236.875 196.051 237.953 197.156 239.404 197.974L241.01 198.88L242.351 199.742L243.737 200.869C244.881 201.753 246.134 202.04 247.256 202.239L250.819 203.035C252.6 203.61 254.162 204.007 255.767 204.007L258.165 203.919C260.276 203.61 262.388 203.035 264.345 202.482C266.764 201.841 269.294 200.67 271.625 198.946C272.659 198.15 273.692 197.31 274.726 196.272L276.2 194.725L276.706 194.194L277.805 193.222L278.267 192.713L279.059 191.918C280.356 190.459 281.368 188.801 282.182 187.188C282.974 185.486 283.194 183.718 283.282 181.972L283.546 179.717L283.766 178.015V176.579L283.546 173.794L283.612 173.727ZM280.027 179.054L279.653 181.64C279.521 183.209 279.323 184.403 278.773 185.508C278.157 186.856 277.343 188.293 276.332 189.508L275.65 190.304L275.21 190.835L274.55 191.675L273.912 192.315L272.483 193.708C271.559 194.526 270.591 195.211 269.514 195.94C267.578 197.311 265.423 198.239 263.509 198.681C261.552 199.079 259.528 199.454 257.593 199.609L255.855 199.764C254.8 199.764 253.722 199.521 252.139 199.012C250.709 198.526 249.257 198.128 247.916 197.863C247.058 197.731 246.684 197.62 246.398 197.421L245.123 196.228L243.187 194.747L241.604 193.907C240.746 193.443 240.24 192.934 239.536 192.028L237.403 189.177L236.435 187.63L236.171 187.099L235.951 186.569L235.907 186.48L235.709 185.287L235.269 183.364L234.939 182.303L234.763 181.596L234.61 180.999L234.346 180.137L234.192 179.319V177.374L234.258 175.385V173.661L234.302 172.865L234.522 171.186L234.983 169.638L236.391 166.058L236.611 165.461L236.831 165.019L237.117 164.555L237.469 164.047L238.656 162.389L241.604 159.007C241.604 159.007 241.713 158.897 241.757 158.853C242.241 158.919 242.769 158.786 243.165 158.433L244.793 157.084L245.32 156.886C245.518 156.819 245.716 156.709 245.892 156.576L246.816 155.979L247.696 155.537L248.378 155.25L249.477 154.918L251.149 154.476L252.82 154.189H255.218L255.965 154.145H257.219L258.913 154.565L260.782 154.874C262.278 155.139 263.333 155.161 263.949 155.405C264.741 155.736 265.643 156.355 266.984 157.151L267.446 157.372L268.194 157.836L269.096 158.3L269.58 158.587L270.503 159.317L271.515 160.289L271.999 160.775L272.153 160.908L272.813 161.682L273.978 162.698L274.33 162.942L275.276 163.914L275.826 164.444L275.98 164.599L276.42 165.196L277.629 166.566L277.959 166.942L278.597 167.804L278.685 167.87L279.037 168.445L279.301 169.174L279.521 170.036L280.071 172.799L280.203 173.948L280.247 176.601V177.684L280.027 179.076V179.054Z" fill="#15161A"/>
<path d="M191.941 171.274C191.193 170.766 190.621 170.788 190.16 170.721C189.94 170.721 189.522 170.633 188.818 170.766C188.202 170.92 187.718 171.252 187.322 171.605C187.256 171.65 187.168 171.672 187.102 171.694C186.949 171.782 186.795 171.893 186.663 172.048C185.893 172.887 186.047 173.484 186.069 173.484C185.981 173.794 185.937 174.059 185.893 174.28C185.849 174.611 185.739 175.164 186.025 175.893C186.047 175.982 186.113 176.07 186.135 176.159C186.179 176.247 186.201 176.313 186.245 176.38C186.245 176.38 186.267 176.402 186.289 176.424C186.553 176.844 186.883 177.175 187.234 177.463C187.784 177.838 188.268 177.905 188.576 177.949C189.214 178.015 190.116 178.126 191.061 177.661C192.689 176.932 193.217 175.363 193.239 174.037C193.239 173.97 193.327 173.661 193.239 173.153C193.085 172.048 192.381 171.539 191.963 171.296L191.941 171.274Z" fill="white"/>
<path d="M258.164 171.65C257.68 171.009 257.24 170.898 257.064 170.788C256.339 170.39 255.679 170.346 255.349 170.324C255.063 170.279 254.557 170.103 253.567 170.191C252.644 170.346 251.984 170.832 251.5 171.34L250.73 172.468C250.444 173.108 250.444 173.683 250.466 174.191C250.422 174.479 250.4 174.744 250.4 174.987C250.4 175.429 250.4 176.07 250.708 176.733C251.302 178.015 252.402 178.524 253.545 178.855L254.227 178.966C254.975 179.032 255.679 178.722 256.141 178.17C256.955 177.75 257.46 177.087 257.944 176.424C258.318 175.827 258.56 175.208 258.648 174.7C258.78 174.258 258.846 173.705 258.758 173.175C258.736 173.02 258.758 172.313 258.186 171.65H258.164Z" fill="white"/>
<path d="M348.351 126.239C348.591 124.805 348.33 123.492 347.961 122.299C347.522 120.652 346.755 118.326 344.623 116.778C343.833 116.19 343.064 115.859 342.453 115.556C341.713 115.215 341.033 115.002 340.344 114.809L340.558 114.274L341.863 110.877L342.115 109.72L342.1 108.604L341.781 107.558C341.722 107.43 341.642 107.293 341.553 107.175C340.802 106.211 339.443 106.032 338.462 106.779L337.541 107.852L337.15 108.644L336.858 109.338L335.709 112.467L334.512 115.793L333.625 118.041L332.795 119.825L330.795 124.135L329.722 126.463L328.121 129.713L327.057 131.972C326.276 133.558 325.317 135.055 324.034 136.565L321.918 139.018L318.911 142.534L317.393 144.421C316.571 145.542 315.787 146.486 314.797 147.401C313.836 148.306 312.737 149.192 311.657 149.89L307.602 152.098L305.175 153.19L302.984 154.004C301.883 154.347 300.743 154.67 299.611 154.825C297.408 155.165 295.183 154.853 293.892 154.337L292.916 153.928L292.462 153.704C291.869 153.065 290.914 152.913 290.148 153.323C289.215 153.823 288.855 155.001 289.351 155.936C289.758 156.704 290.39 157.263 290.883 157.655L292.235 158.447C294.364 159.402 297.19 159.79 300.289 159.375C301.803 159.139 303.17 158.705 304.271 158.363L306.983 157.437L309.606 156.245C310.844 155.625 312.484 154.785 314.064 153.767C315.448 152.899 316.773 151.854 317.94 150.78C319.185 149.596 320.174 148.385 321.104 147.095L322.366 145.279L325.06 142.002L327.402 139.439C328.92 137.651 330.064 135.826 331.002 134.022L332.154 131.684L333.755 128.532L334.449 127.224C334.449 127.224 334.518 127.283 334.547 127.322L335.376 127.831L336.934 128.602L337.683 128.874L338.452 129.155L339.231 129.417L340.019 129.659L340.718 129.833L341.417 129.957L342.018 130.032C344.233 130.265 346.585 130.073 347.787 127.932C348.236 127.168 348.283 126.526 348.331 126.229L348.351 126.239ZM343.05 124.651L342.754 124.554L342.34 124.399L341.759 124.185L341.138 123.952L340.477 123.699L339.817 123.446L339.038 123.135L338.289 122.863L337.402 122.572L336.969 122.456L337.203 121.981L338.17 120.118L338.804 118.632L340.686 119.341L342.117 120.123C343.054 120.858 343.482 122.031 343.773 123.284C343.893 123.935 343.915 124.439 343.887 124.745L343.04 124.671L343.05 124.651Z" fill="#15161A"/>
<path d="M227.78 308.353L227.758 308.308L227.78 308.353Z" fill="#15161A"/>
<path d="M258.065 280.99L257.713 279.907L256.856 278.05L255.602 275.796C254.942 274.58 254.216 272.481 252.897 269.652C251.357 266.601 249.312 263.308 246.937 260.015L243.659 255.528L240.514 251.064C238.887 248.676 238.183 246.709 236.138 245.759L235.632 245.516C235.5 245.405 235.346 245.295 235.192 245.229L234.752 245.096C234.532 245.052 233.234 245.206 232.861 246.091C232.641 246.621 232.706 247.063 232.926 247.704C233.366 248.588 233.806 248.743 233.85 248.787L236.533 253.561L239.349 258.379L242.318 263.286C244.341 266.403 246.079 269.563 247.31 272.392C248.432 274.801 249.07 276.857 250.148 278.824L251.313 280.835L251.599 281.41L250.324 282.493C249.026 283.377 246.233 284.814 243.352 285.919C240.273 287.112 236.995 288.35 233.63 289.411L227.406 291.356L224.833 292.351L223.139 292.771L221.424 293.102C221.116 293.213 220.786 293.345 220.456 293.588C220.302 293.655 220.126 293.765 219.95 293.898L219.862 284.88L220.016 274.691L220.126 269.806L220.412 264.568L220.808 255.528L220.984 248.831C221.028 246.997 221.27 245.516 220.28 243.991C219.818 243.284 218.96 242.952 218.147 243.173C217.113 243.438 216.475 244.521 216.761 245.56C216.805 245.715 216.079 250.025 215.639 255.44L215.375 264.347L215.2 269.563L215.046 274.58L214.826 284.703L214.452 294.296L214.364 299.401V301.435L214.408 305.059L214.32 306.761L214.232 310.01L213.968 314.608L213.858 315.801L213.814 318.476V320.376L213.726 322.211L212.45 322.498L210.735 322.675L210.031 322.719L209.129 322.808L208.382 322.918L207.722 323.029L206.996 323.117L205.83 323.25L204.994 323.404L203.983 323.603L203.213 323.802L202.465 323.979C202.267 324.023 202.069 324.09 201.871 324.178L200.948 324.554L200.134 324.951L198.99 325.592C198.506 325.88 198.11 326.278 197.802 326.764C197.582 327.14 197.253 327.184 197.187 328.51C197.187 328.731 197.187 328.952 197.231 329.173C197.538 330.632 198.022 330.698 198.418 331.074C198.836 331.45 199.342 331.715 199.892 331.847L201.651 332.135L202.707 332.179H203.521C203.719 332.157 203.939 332.135 204.137 332.091L204.95 331.936L205.984 331.715L206.82 331.494L207.964 331.184L208.645 330.941L209.283 330.72L210.009 330.499L210.845 330.234L211.482 330.013L211.834 329.88L214.122 329.151C215.595 328.576 216.585 327.803 216.717 327.692L217.685 327.051C218.345 326.609 219.136 325.217 219.18 324.399L219.115 323.316V322.542L219.18 320.575V318.476L219.137 316.155L219.224 314.961L219.422 310.298L219.51 307.248L219.708 305.214V301.501L219.752 299.401V298.849L220.676 300.241L222.172 302.009L226.394 306.651L227.34 307.889L227.45 308.043L227.626 308.308C227.934 309.038 228.484 309.635 229.188 309.944C229.363 310.032 229.407 310.165 230.287 310.231C230.705 310.253 231.123 310.209 231.497 310.055C232.619 309.657 232.75 309.237 232.992 308.905C233.432 308.264 233.63 307.491 233.52 306.717L233.41 306.231L233.322 305.944L233.278 305.833L233.058 305.236L232.883 304.861L232.619 304.374L231.211 302.429L226.636 297.545L226.416 297.346L229.166 296.417L234.972 294.517C238.601 293.5 242.032 292.306 245.199 291.179C248.454 290.008 251.423 288.571 253.227 287.4C254.085 286.913 255.602 286.361 257.076 284.526C257.516 283.885 258.417 283.001 257.977 281.034L258.065 280.99Z" fill="#15161A"/>
<path d="M150.008 177.675L149.861 177.872C149.761 178.017 149.665 178.181 149.611 178.353L149.557 178.526C149.498 178.68 149.458 178.829 149.441 178.992L149.389 179.322L149.355 179.648L149.334 179.871L149.358 179.964L149.295 180.178L148.884 181.256L148.331 182.628L148.147 183.211L147.515 184.505L146.539 186.304L145.988 187.834L145.598 188.767L144.449 190.355C144.065 190.93 143.571 191.693 143.168 192.729C142.544 194.357 142.276 195.833 142.058 196.286L140.685 198.308C139.754 199.898 139.269 201.53 138.779 203.064L136.857 209.051C136.246 211.408 136.129 213.538 135.328 215.628C134.718 217.233 133.834 218.929 132.966 220.76C131.434 223.992 129.711 227.175 129.082 230.983C128.648 233.492 128.081 236.096 127.177 238.549C126.302 241.035 125.519 243.497 124.707 245.392C124.558 245.807 123.739 246.615 123.477 248.189C123.407 248.603 123.482 249.039 123.699 249.418C123.945 249.829 124.343 250.062 124.674 250.193C124.843 250.386 125.077 250.523 125.342 250.553C125.812 250.609 126.232 250.321 126.395 249.882C126.653 249.656 126.877 249.38 126.99 249.053C127.072 248.834 127.694 248.335 128.441 246.952C129.259 245.233 130.009 243.176 130.777 241.114C130.903 241.14 131.034 241.185 131.155 241.193L133.563 241.317L135.424 241.088L136.295 240.86C137.055 240.662 137.906 240.202 138.412 239.337C138.919 238.472 138.899 237.487 138.652 236.542C138.389 235.838 138.031 235.377 137.678 234.935L136.982 234.087L136.144 232.623L135.362 231.679C135.062 231.361 134.671 230.928 133.938 230.546C133.868 230.505 133.784 230.487 133.718 230.464C134.436 227.98 135.721 225.545 137.113 222.766C137.974 221.056 138.954 219.275 139.724 217.371C140.88 214.594 141.104 212.119 141.643 210.315L143.538 204.454C143.982 202.972 144.364 201.704 144.943 200.661L146.147 198.525C146.959 197.006 147.161 195.508 147.596 194.444L148.481 192.906L149.583 191.133L150.309 189.517L150.978 187.758L151.474 186.243L151.824 184.627L152.043 183.876L152.447 182.464L152.696 181.448L152.804 181.103L152.94 180.79L153.108 180.37L153.242 179.9L153.313 179.564C153.335 179.42 153.352 179.257 153.332 179.104L153.295 178.737C153.27 178.566 153.203 178.385 153.155 178.2L152.88 177.678C152.752 177.493 152.611 177.332 152.424 177.222C151.647 176.673 150.548 176.861 150.003 177.657L150.008 177.675ZM133.313 236.57L133.729 237.175L133.422 237.215L132.139 237.154C132.314 236.534 132.484 235.896 132.64 235.281L133.313 236.57Z" fill="#15161A"/>
<path d="M407.497 258.107C410.065 258.008 412.583 257.729 414.985 257.301C417.652 256.841 419.988 256.167 422.092 255.329C423.981 254.572 425.902 253.52 427.807 252.353C430.392 250.775 432.926 248.884 435.196 246.697C438.509 243.508 441.06 239.563 442.932 235.009C444.208 231.869 445.036 228.4 445.517 224.635C445.782 222.646 445.914 220.574 445.964 218.453C446.047 215.544 446.014 212.206 445.567 208.721C445.268 206.354 444.854 203.92 444.324 201.537C443.711 198.775 442.8 195.881 441.74 192.971C442.187 191.64 442.585 190.259 442.833 188.779C443.28 186.165 443.446 183.288 443.115 180.296C442.75 176.959 441.69 173.934 440.398 171.172C438.725 167.604 436.14 164.004 432.926 160.716L430.259 158.053C426.283 154.321 421.015 151.329 415.3 149.159L411.539 147.778C407.878 146.594 404.068 146.43 400.556 146.232C396.994 146.035 393.449 146.002 390.019 146.232C387.269 146.413 384.47 146.808 381.72 147.35C381.67 147.35 381.62 147.35 381.587 147.35C379.334 147.219 377.015 147.087 374.679 147.498C371.763 148.024 369.129 149.175 366.777 150.704C364.491 152.2 362.453 154.058 360.498 156.08C359.024 157.609 357.533 159.187 356.075 160.831C353.921 161.373 351.9 162.015 350.111 162.837C347.03 164.218 344.495 166.141 342.507 168.344C341.994 168.903 341.546 169.528 341.099 170.185C339.939 169.33 339.111 168.706 338.978 168.377C338.929 168.262 339.028 167.67 339.277 166.914C339.542 166.24 339.989 165.27 339.79 164.02L339.326 162.376C338.978 160.469 338.515 158.891 338.631 157.527C338.697 156.754 339.177 155.702 339.476 154.485C339.807 153.104 339.873 151.608 339.857 150.276C339.857 148.583 339.625 147.186 340.039 146.577L340.503 146.15C340.718 145.953 341.48 145.624 341.977 144.703C342.772 143.273 342.457 141.645 341.828 140.281C341.265 139.114 340.966 138.538 341.265 138.045C341.331 137.93 341.811 137.552 341.977 136.664C342.275 135.382 341.861 134.28 341.596 133.491C341.248 132.455 340.834 131.403 340.668 130.45C340.436 129.135 340.37 127.885 339.989 126.521C339.641 125.567 339.625 124.762 339.691 124.712C339.989 124.433 340.055 123.989 339.857 123.627C339.608 123.2 339.078 123.052 338.647 123.298C337.239 124.087 337.488 125.912 337.686 127.195C337.918 128.165 337.951 129.365 338.167 130.828C338.349 132.127 338.813 133.31 339.111 134.264C339.343 134.987 339.492 135.661 339.426 135.974L339.376 136.007L338.846 136.697C337.786 138.538 338.846 140.347 339.36 141.432C339.757 142.254 339.79 143.092 339.658 143.339L338.73 144.046C338.531 144.21 338.1 144.49 337.703 145.081C336.494 147.005 337.189 149.027 337.222 150.293C337.239 151.493 337.173 152.808 336.924 153.844C336.709 154.732 336.129 155.866 335.997 157.264C335.798 159.269 336.344 161.078 336.626 162.82L337.04 164.481L336.709 165.812C336.378 166.569 335.616 167.818 336.146 169.462C336.759 171.238 338.266 172.092 339.558 173.046C339.128 173.917 338.73 174.789 338.332 175.709C337.57 177.485 336.858 179.441 336.328 181.562L335.549 185.031C334.572 190.176 334.887 195.306 336.593 200.156C337.338 202.309 338.415 204.249 339.575 206.107C340.569 207.702 341.712 209.263 342.905 210.809C342.739 215.034 342.689 219.012 342.739 222.728C342.772 224.388 342.789 226.098 342.988 227.857C343.302 230.455 344.197 232.97 345.323 235.321C346.848 238.494 348.852 241.322 351.287 243.771C355.197 247.684 360.067 250.347 365.385 251.942C368.897 252.928 372.989 253.421 377.429 253.586C377.495 253.619 377.562 253.668 377.628 253.717C382.333 256.348 386.988 257.334 391.61 257.778C393.532 257.942 395.553 258.09 397.706 258.123C400.672 258.189 404.117 258.222 407.596 258.074L407.497 258.107ZM440.514 202.375C441.011 204.644 441.408 206.962 441.707 209.214C442.121 212.42 442.154 215.544 442.071 218.355C442.021 220.36 441.872 222.3 441.624 224.125C441.16 227.611 440.381 230.751 439.238 233.513C437.548 237.639 435.295 241.108 432.429 243.87C430.408 245.826 428.089 247.536 425.72 248.966C423.914 250.051 422.158 250.972 420.584 251.58C418.746 252.287 416.691 252.846 414.273 253.241C412.036 253.602 409.717 253.816 407.364 253.865C404.018 253.915 400.672 253.783 397.789 253.602C397.358 253.569 396.944 253.52 396.514 253.487C397.242 253.405 397.971 253.323 398.684 253.208C403.554 252.468 408.607 251.465 412.997 249.574L415.764 248.226C416.211 247.98 416.642 247.7 417.072 247.404C417.122 247.388 417.172 247.355 417.221 247.339C421.015 245.399 424.444 242.571 427.443 239.464C430.441 236.324 432.877 232.493 434.401 227.906C434.434 227.808 434.45 227.693 434.484 227.594C436.256 225.44 437.797 222.859 438.874 220.163C440 217.352 440.563 214.343 439.984 211.434C439.752 210.266 439.288 209.231 438.725 208.293C438.99 206.222 439.106 204.101 438.973 201.948C438.973 201.8 438.94 201.652 438.923 201.487C439.205 200.747 439.437 199.975 439.636 199.202C439.951 200.287 440.249 201.356 440.464 202.375L440.514 202.375ZM380.262 249.048C378.754 248.144 377.28 247.059 375.772 245.859C373.138 243.771 370.521 241.47 368.019 239.086C370.09 240.664 372.111 241.848 374.348 242.456C377.247 245.3 380.444 247.552 383.857 249.131C384.205 249.295 384.569 249.443 384.917 249.607C383.675 249.607 382.416 249.575 381.14 249.542C380.842 249.377 380.544 249.213 380.262 249.032L380.262 249.048ZM390.483 152.331C392.687 152.874 394.84 153.729 397.143 154.732C395.387 154.847 393.697 155.208 392.14 155.817C390.914 155.57 389.688 155.34 388.462 155.192C384.685 154.715 381.206 154.6 377.976 155.093C378.274 154.945 378.556 154.781 378.87 154.65C381.62 153.499 384.553 152.677 387.65 152.397C388.446 152.332 389.241 152.282 390.053 152.233C390.202 152.266 390.351 152.299 390.5 152.331L390.483 152.331ZM393.068 248.572C390.4 248.161 387.965 247.026 385.513 245.777C384.072 245.037 382.681 244.166 381.355 243.163C384.039 243.245 386.574 243.36 389.191 243.163C393.184 242.801 397.607 241.848 402.196 240.894C404.78 240.352 407.679 239.743 410.578 238.954C412.036 238.56 413.395 238.132 414.72 237.672C414.77 237.672 414.819 237.705 414.869 237.721C416.774 238.264 418.828 238.165 420.866 237.623C419.541 239.842 418.099 241.798 416.493 243.278C416.145 243.475 415.797 243.705 415.449 243.886C414.057 244.61 412.467 245.284 410.545 245.925C406.337 247.289 401.715 248.243 397.491 248.818C395.967 248.818 394.476 248.752 393.084 248.555L393.068 248.572ZM387.154 158.924C386.474 159.532 385.845 160.14 385.315 160.782C382.134 159.976 378.97 159.762 375.971 159.614C379.119 158.595 382.763 158.464 387.137 158.924L387.154 158.924ZM422.125 182.778L424.527 186.708C426.002 189.256 427.31 191.804 428.437 194.319L428.238 195.7C427.559 194.237 426.83 192.774 425.985 191.311C423.782 187.48 420.667 183.272 416.724 179.129C418.679 180.312 420.468 181.529 422.092 182.746L422.092 182.778L422.125 182.778ZM354.451 211.499C354.087 210.25 353.739 208.951 353.408 207.587L353.408 207.439C353.607 204.43 354.054 201.685 354.882 199.679C354.948 200.188 354.982 200.682 355.081 201.191C355.23 201.98 355.445 202.786 355.661 203.592C355.727 204.512 355.81 205.416 355.909 206.321C356.092 207.915 356.357 209.346 356.605 210.628C356.97 212.403 357.45 214.212 358.013 216.02C356.671 214.689 355.462 213.176 354.418 211.516L354.451 211.499ZM388.992 237.672C386.425 237.672 383.907 237.507 381.455 237.179L378.688 236.274C376.65 235.535 374.729 234.532 373.006 233.299C373.884 233.513 374.778 233.693 375.723 233.858C377.893 234.252 380.179 234.548 382.515 234.762C385.795 235.058 388.694 235.157 391.361 235.157C391.891 235.354 392.422 235.535 392.968 235.683C393.763 235.896 394.575 236.044 395.37 236.159C395.669 236.357 395.967 236.538 396.265 236.702C395.039 236.965 393.797 237.195 392.504 237.36L389.423 237.639C389.274 237.639 389.141 237.639 388.992 237.655L388.992 237.672ZM370.869 178.948C371.946 178.767 373.089 178.619 374.281 178.504L373.155 179.589C372.144 179.803 371.167 180.066 370.223 180.411C370.438 179.918 370.637 179.425 370.869 178.948ZM374.596 172.997C375.756 172.569 376.849 172.158 377.876 171.944C379.003 171.714 380.162 171.533 381.339 171.402C381.306 171.961 381.272 172.52 381.272 173.079C380.345 173.572 379.467 174.131 378.622 174.739C376.717 174.805 374.861 174.904 373.056 175.068C373.536 174.345 374.049 173.638 374.596 172.964L374.596 172.997ZM372.973 206.649C372.459 203.986 372.674 201.339 372.989 198.758C373.205 196.753 373.619 194.944 374.083 193.333C374.414 192.988 374.745 192.659 375.093 192.363C376.17 191.952 377.346 191.623 378.622 191.377C377.694 193.925 376.104 197.427 376.468 200.353C376.601 201.257 376.816 202.194 377.114 203.098C376.998 204.381 376.982 205.729 377.081 207.176C377.446 210.875 379.931 213.817 381.521 217.188C381.272 217.072 381.024 216.974 380.792 216.842C379.053 215.955 377.346 214.935 375.789 213.932L374.911 212.14C374.248 210.792 373.718 209.428 373.254 208.08C373.138 207.603 373.039 207.126 372.956 206.649L372.973 206.649ZM409.203 223.78C409.154 223.566 409.087 223.369 409.038 223.155C409.17 223.139 409.286 223.122 409.419 223.09C409.352 223.32 409.27 223.55 409.203 223.764L409.203 223.78ZM415.267 213.028C415.035 213.209 414.803 213.39 414.571 213.554C414.604 212.387 414.571 211.17 414.339 209.921C414.173 208.852 413.908 207.833 413.61 206.83C414.554 208.458 415.035 210.184 415.2 211.894C415.234 212.272 415.25 212.65 415.267 213.028ZM403.886 203.592C404.449 203.888 405.029 204.134 405.608 204.364C404.979 205.745 404.498 207.225 404.151 208.754C403.687 210.891 403.62 213.127 403.703 215.363C402.361 215.264 401.053 215.067 399.794 214.787C399.429 214.705 399.081 214.59 398.717 214.491C399.297 213.686 399.843 212.847 400.291 211.993C401.898 209.033 402.759 205.926 402.593 202.852L403.886 203.592ZM391.494 215.971C391.196 216.201 390.881 216.415 390.566 216.629C390.351 216.119 390.135 215.609 389.937 215.1L389.937 215.05C390.434 215.363 390.947 215.692 391.494 215.987L391.494 215.971ZM394.145 220.097C393.797 220.081 393.432 220.048 393.068 220.015C394.029 219.325 394.94 218.585 395.768 217.779C396.795 218.108 397.839 218.421 398.932 218.634C399.794 218.815 400.672 218.963 401.583 219.078C400.274 219.489 398.965 219.9 397.64 220.278C396.447 220.229 395.271 220.18 394.145 220.097ZM420.932 202.392C420.932 202.392 420.8 202.227 420.734 202.161C420.783 202.178 420.833 202.194 420.899 202.227C420.899 202.293 420.916 202.342 420.932 202.408L420.932 202.392ZM417.536 197.361C417.172 197.311 416.791 197.279 416.426 197.262C403.597 180.037 411.398 181.209 419.309 197.755L417.553 197.377L417.536 197.361ZM378.804 184.702C378.522 184.784 378.257 184.866 377.976 184.965C378.025 184.899 378.075 184.817 378.125 184.751C378.34 184.735 378.572 184.702 378.804 184.702ZM386.756 171.139C386.275 171.221 385.812 171.32 385.348 171.451C385.348 171.353 385.364 171.254 385.381 171.139C385.845 171.139 386.309 171.139 386.756 171.139ZM420.038 227.413C420.27 227.117 420.468 226.805 420.684 226.509C420.518 226.805 420.319 227.084 420.137 227.38C420.104 227.38 420.071 227.413 420.038 227.413ZM426.714 220.015C426.731 219.917 426.764 219.818 426.78 219.703L426.78 219.802C426.78 219.802 426.731 219.933 426.714 219.999L426.714 220.015ZM363.729 189.075C363.281 192.084 363.149 195.207 363.281 198.314C362.983 198.988 362.718 199.679 362.47 200.353C361.592 199.186 360.714 198.068 359.786 196.999C359.802 195.52 359.885 194.04 360.001 192.577C361.161 191.327 362.403 190.16 363.712 189.075L363.729 189.075ZM361.409 204.545C361.327 205.022 361.244 205.499 361.177 205.975C360.796 204.956 360.482 203.953 360.2 202.967C360.581 203.477 360.995 204.003 361.409 204.545ZM364.209 183.6C363.546 184.061 362.884 184.521 362.271 184.998C361.857 185.31 361.459 185.655 361.061 185.968L361.84 182.713C362.155 182.45 362.47 182.187 362.834 181.94C363.381 181.546 364.043 181.184 364.756 180.822C364.524 181.726 364.342 182.663 364.193 183.6L364.209 183.6ZM369.08 226.246C370.421 226.673 371.796 226.838 373.188 226.887C374.099 227.43 375.01 227.939 375.938 228.416L379.483 230.126C380.013 230.356 380.593 230.553 381.156 230.734C379.533 230.553 377.943 230.34 376.468 230.077C373.437 229.485 370.819 228.663 369.03 227.759L368.831 227.643C368.549 227.052 368.284 226.46 368.036 225.868L369.08 226.246ZM373.138 168.837C373.022 168.87 372.906 168.919 372.79 168.952C370.156 169.906 367.721 171.583 365.302 173.408C366.429 171.386 367.837 169.807 369.792 168.985C371.233 168.377 372.608 167.818 373.983 167.637C374.132 167.621 374.315 167.604 374.48 167.588C374.016 167.982 373.569 168.393 373.138 168.837ZM354.783 190.489C354.766 190.653 354.75 190.818 354.733 190.999L354.601 190.834C354.667 190.719 354.717 190.604 354.783 190.489ZM360.415 222.268C360.515 222.481 360.598 222.695 360.697 222.909C360.051 222.465 359.421 221.988 358.792 221.511C358.659 221.298 358.527 221.1 358.394 220.887C359.073 221.38 359.736 221.84 360.415 222.268ZM416.045 174.493C415.316 174.082 414.571 173.671 413.825 173.26L408.541 170.695C407.017 170.005 405.459 169.265 403.869 168.574C403.521 168.377 403.157 168.18 402.809 167.982C404.2 168.41 405.542 168.87 406.785 169.429L411.589 171.829C413.03 172.569 414.438 173.358 415.813 174.18C415.896 174.279 415.979 174.378 416.062 174.476L416.045 174.493ZM394.145 162.738C392.935 162.607 391.775 162.574 390.632 162.574L389.738 162.245C390.5 161.587 391.378 160.963 392.405 160.436C392.72 160.272 393.051 160.157 393.382 160.025C397.756 161.127 402.08 162.935 405.94 165.467C406.023 165.516 406.105 165.582 406.188 165.648C402.444 164.152 398.286 163.182 394.145 162.738ZM363.298 168.032C365.22 166.388 367.125 164.777 369.03 163.396C370.438 163.396 371.863 163.396 373.321 163.478C373.818 163.494 374.331 163.527 374.828 163.544C374.381 163.544 373.934 163.593 373.486 163.626C371.432 163.84 369.676 164.563 368.168 165.171C364.06 166.848 361.757 170.514 360.2 174.082C359.521 175.66 358.908 177.37 358.361 179.145C356.406 180.97 354.567 182.91 352.977 184.965C352.613 185.442 352.265 185.919 351.933 186.428C351.983 185.82 352.016 185.212 352.082 184.62C353.491 180.74 355.379 177.14 357.848 174.049L360.333 171.057C360.697 170.629 361.045 170.202 361.409 169.774C362.022 169.183 362.635 168.591 363.281 168.032L363.298 168.032ZM434.069 186.971C434.152 186.675 434.235 186.362 434.318 186.066C434.368 185.886 434.384 185.705 434.417 185.54C434.997 187.069 435.428 188.549 435.676 189.881C435.196 188.894 434.666 187.924 434.069 186.971ZM415.151 165.188C417.255 166.601 419.325 167.851 421.429 169.347L425.604 172.602C428.072 174.706 429.911 176.794 430.557 178.636C430.955 179.737 431.005 180.855 430.922 182.17C430.922 182.252 430.905 182.318 430.905 182.4C428.106 178.866 424.063 175.561 419.392 172.619C418.099 171.073 416.724 169.528 415.184 168.081L412.02 165.303C410.678 164.218 409.386 163.215 408.044 162.343C406.636 161.406 405.178 160.584 403.687 159.828C405.807 160.239 407.911 160.88 409.932 161.686C411.788 162.919 413.544 164.135 415.167 165.22L415.151 165.188ZM407.795 156.162C407.348 155.883 406.901 155.587 406.437 155.324C405.443 154.732 404.416 154.173 403.389 153.63C403.935 153.778 404.482 153.926 405.029 154.107C408.375 155.192 411.523 156.688 414.223 158.529C414.389 158.644 414.538 158.776 414.703 158.891C412.55 157.822 410.23 156.902 407.795 156.178L407.795 156.162ZM427.41 161.078L429.978 163.593C432.943 166.569 435.312 169.807 436.803 172.882C438.012 175.364 438.94 177.945 439.288 180.756C439.503 182.515 439.503 184.258 439.371 185.935C439.006 184.768 438.592 183.584 438.079 182.4C436.637 179.014 434.732 175.857 432.33 172.947C431.75 172.06 431.203 171.155 430.591 170.284C428.52 167.341 426.465 164.645 424.246 162.146C422.125 159.762 419.64 157.264 416.575 155.159C415.316 154.288 413.974 153.515 412.583 152.792L413.743 153.203C419.044 155.159 423.898 157.872 427.41 161.094L427.41 161.078ZM351.122 166.963C350.045 168.459 349.067 169.972 348.206 171.533C347.411 173.013 346.698 174.542 346.052 176.12C345.539 175.019 344.976 174.016 344.28 173.145C344.727 172.372 345.174 171.681 345.638 171.155C347.096 169.511 348.902 168.081 351.105 166.947L351.122 166.963ZM340.436 198.84C339.012 194.665 338.78 190.357 339.674 185.886L340.436 182.647C340.9 180.806 341.53 179.047 342.209 177.403C342.292 177.189 342.391 176.992 342.474 176.794C342.656 177.222 342.855 177.698 343.054 178.257C343.418 179.211 343.832 180.214 344.28 181.217C344.263 181.282 344.247 181.332 344.23 181.381C343.634 183.502 343.17 185.672 342.822 187.858C342.424 190.209 342.159 192.396 341.977 194.451C341.695 196.933 341.679 199.498 341.911 202.079C341.314 200.994 340.801 199.925 340.436 198.824L340.436 198.84ZM354.849 240.237C352.861 238.165 351.254 235.814 350.012 233.118C349.084 231.096 348.421 229.09 348.223 227.298C348.073 225.884 348.057 224.339 348.024 222.646C348.024 222.498 348.024 222.35 348.024 222.202C349.863 225.95 352.116 229.682 354.833 233.266C357.003 236.587 359.769 239.53 362.37 242.242L364.656 244.708C365.799 245.826 367.042 246.911 368.351 247.914C367.771 247.75 367.174 247.618 366.644 247.437C362.039 245.958 358.013 243.574 354.849 240.253L354.849 240.237Z" fill="#15161A"/>
<ellipse cx="393.117" cy="198.883" rx="35.1606" ry="34.954" fill="#15161A"/>
<path d="M415.782 198.784L415.033 198.107C412.121 195.43 408.886 193.114 405.442 191.133L399.084 187.529C398.608 187.259 398.454 186.685 398.667 186.207C398.79 185.897 398.885 185.587 398.867 185.216C398.842 184.162 398.099 183.257 397.082 182.999C395.753 182.675 394.532 183.522 394.268 184.767L394.267 184.796C394.263 184.91 394.232 184.994 394.229 185.108C393.817 187.516 391.631 189.218 389.16 189.002C387.058 188.827 385.367 187.268 384.94 185.319C384.915 185.204 384.891 185.061 384.865 184.947C384.664 184.058 384.175 183.246 383.48 182.656C382.814 182.067 381.914 181.699 380.948 181.642C378.758 181.521 376.803 183.143 376.511 185.327C376.184 187.738 377.917 189.811 380.331 190.024C380.53 190.03 380.984 190.072 381.24 190.079C382.664 190.093 383.805 190.981 384.422 192.28C384.743 192.973 384.891 193.746 384.811 194.541C384.64 196.501 383.226 198.083 381.42 198.514C381.305 198.539 381.162 198.563 381.047 198.588C380.876 198.611 380.704 198.635 380.533 198.63L380.505 198.629C380.476 198.628 380.42 198.627 380.391 198.626C380.363 198.625 380.306 198.623 380.277 198.622C379.109 198.645 378.113 199.584 378.107 200.78C378.074 201.889 378.9 202.853 380.005 203.028C380.034 203.029 380.062 203.03 380.091 203.031C380.63 203.075 381.016 203.513 381.029 204.055L381.038 211.487C381.221 214.967 384.408 216 387.427 215.007C388.174 214.772 390.326 214.209 391.101 214.033C397.094 212.586 399.002 211.617 404.042 209.715C406.489 208.79 408.748 207.49 410.953 206.102C412.461 205.178 413.742 204.219 415.311 203.183C416.935 202.178 417.304 200.281 415.782 198.784ZM403.129 201.999C402.79 205.805 399.461 208.612 395.654 208.301L394.774 208.218C390.968 207.878 388.162 204.549 388.473 200.743L388.649 198.612C388.989 194.806 392.318 192 396.124 192.311L397.005 192.394C400.811 192.734 403.617 196.062 403.306 199.869L403.129 201.999Z" fill="#ACAAFA"/>
<path d="M389.52 186.45C390.871 186.49 391.999 185.427 392.038 184.075C392.078 182.724 391.015 181.596 389.664 181.557C388.312 181.517 387.185 182.58 387.145 183.932C387.105 185.283 388.168 186.411 389.52 186.45Z" fill="#ACAAFA"/>
<path d="M382.202 194.328C382.289 193.31 381.497 192.41 380.432 192.318C379.367 192.227 378.433 192.978 378.345 193.996C378.257 195.014 379.05 195.913 380.115 196.005C381.18 196.097 382.114 195.346 382.202 194.328Z" fill="#ACAAFA"/>
<path d="M400.496 199.558L400.317 201.774C400.101 204.274 397.911 206.117 395.44 205.902C392.941 205.686 391.097 203.496 391.312 201.025L391.492 198.81C391.707 196.31 393.896 194.495 396.367 194.71C397.618 194.804 398.682 195.405 399.424 196.309C400.197 197.158 400.59 198.308 400.496 199.558Z" fill="#ACAAFA"/>
</svg>
