<svg width="160" height="91" viewBox="0 0 160 91" fill="none" xmlns="http://www.w3.org/2000/svg">
<path d="M7.37319 89.6566C6.46102 90.5043 5.03466 90.462 4.1907 89.5645C3.45928 88.7751 3.38235 87.5587 4.05056 86.6787C4.3216 86.3245 5.21547 84.7952 6.16061 82.7912C7.04653 81.1181 7.87625 79.3044 8.51556 77.5511C9.08507 75.9369 9.42397 74.3569 9.52408 73.0136C9.61372 71.3055 9.23927 69.9641 8.61303 68.2734L6.26584 62.0874L5.39033 60.2686C5.2725 60.0647 5.49757 60.2809 5.34748 60.1945C5.18404 60.0415 6.5779 60.5476 6.2669 60.5293L5.62853 60.8976C5.31729 61.2255 4.76897 63.223 4.77562 65.2711C4.83354 66.8446 5.00688 68.228 5.53418 69.5307C5.90622 70.478 6.4257 71.4638 7.19444 72.5778C8.01939 73.8323 9.13921 75.164 10.3636 76.4601L13.3968 79.2837C16.3982 81.5322 19.2458 81.1748 22.6333 79.5417C25.6184 78.1655 28.8798 76.531 31.876 74.4808C33.1287 73.6592 34.3037 72.6598 35.4386 71.6342C37.381 69.7966 38.9319 68.0612 39.9443 65.697C40.7607 63.8169 41.3441 61.4035 41.5603 58.8313C41.7281 56.6084 41.4456 54.1261 41.1818 51.633L40.6912 47.6638C40.3366 44.7534 40.0914 42.5957 39.5026 41.0565C38.9701 39.4849 38.3596 38.2549 37.7567 37.688C37.3173 37.274 36.7865 37.1353 36.2314 37.2577C35.8587 37.3492 35.4912 37.5365 35.1049 37.9077C34.2141 38.7925 33.306 41.6404 33.1297 44.5852C33.0212 46.4772 33.2317 48.3583 33.7668 49.9779C33.9863 50.6176 34.3317 51.2589 34.8058 51.9495C35.4111 52.9106 36.1076 53.7695 36.9463 54.5712C37.7956 55.3914 38.956 56.23 40.17 57.1613L42.7264 59.2463C43.7983 60.0617 44.7684 60.7876 45.5966 61.2244C46.3015 61.5347 46.8163 61.559 47.484 61.3716C48.0391 61.2491 48.8947 60.7801 49.9918 60.1224L53.6181 58.0796L56.4371 56.5026L60.7315 53.7528L63.725 51.8279C65.2407 50.6815 66.7753 49.178 68.0636 47.248C69.2257 45.4897 70.1898 43.3018 70.8133 41.0878C71.3132 39.2666 71.4781 37.342 71.5142 35.5412L71.2787 30.9304L70.8977 27.3677C70.6229 25.3754 70.3293 23.394 69.7994 22.0433L69.1245 20.8752C68.9289 20.6667 69.2318 20.7144 69.1165 20.7315C68.9825 20.7594 69.2399 20.685 69.0467 20.8706C68.3949 21.3456 66.926 24.7395 66.7895 28.2299C66.8181 29.6226 67.0825 31.077 67.5 32.3195L68.3701 34.2156C68.8227 34.8691 69.7795 35.5285 71.1813 36.1783C72.2856 36.7031 73.6661 37.1427 75.1914 37.5729L80.6678 39.3824L84.4397 40.1481C85.7265 40.2956 86.8178 40.2346 87.869 39.9742C88.88 39.6875 89.9931 39.1442 91.1706 38.3659C92.3482 37.5876 93.5152 36.6176 94.6313 35.4297C95.5651 34.446 96.4775 33.252 97.3872 32.0102C98.9678 29.9362 100.358 27.9227 101.402 25.9605C102.629 23.6209 103.258 21.1566 103.625 18.6708C103.848 16.7616 103.962 14.7922 103.966 12.9358L103.947 9.43622L103.442 7.99747C102.944 6.87559 102.446 5.92684 102.009 5.38767L101.454 4.81766C101.454 4.81766 101.618 4.79745 101.492 4.79599C101.103 4.77307 101.768 4.71079 101.712 4.74329L101.618 4.79746C101.5 4.93974 100.901 6.02681 100.611 7.25743C100.479 8.19888 100.644 9.26533 101.049 10.0951C101.289 10.5989 101.541 10.948 101.967 11.2956C103.192 12.4185 106.033 13.5233 109.014 14.3498L111.845 15.0899C113.354 15.4057 114.654 15.6197 115.679 15.5726C116.692 15.507 117.829 15.0487 119.168 14.3754C121.34 13.196 123.481 11.788 125.184 10.0138C126.121 9.07802 126.939 8.11138 127.616 7.02889C128.292 5.94641 128.875 4.57184 129.45 3.05353L130.822 -0.853526L131.723 -4.53766L131.746 -6.92432C131.583 -8.2891 131.241 -9.74806 130.725 -11.2054C130.356 -12.9703 130.014 -14.2562 129.66 -15.0412L129.371 -15.7149C129.318 -15.8076 129.556 -15.5249 129.433 -15.6516C129.117 -16.112 130.194 -15.2008 129.977 -15.2733C129.819 -15.3303 130.291 -15.207 130.261 -15.2147L129.529 -14.9654C129.003 -14.662 128.131 -13.7881 127.479 -12.7937C126.701 -11.4546 126.646 -9.98917 127.197 -8.60146C127.513 -7.79479 127.931 -7.07166 128.558 -6.41978C129.496 -5.40332 131.23 -4.35184 133.116 -3.3391C135.893 -1.99927 138.759 -1.15569 141.156 -1.08004C143.218 -1.10771 144.674 -1.40393 146.087 -2.2937L147.858 -3.38929C148.649 -3.96949 149.577 -5.04904 150.509 -6.42694L151.566 -8.14962L153.81 -11.1994C154.008 -11.4623 154.277 -11.6912 154.537 -11.8908L155.5 -12.5206C156.849 -13.3485 158.616 -12.9339 159.416 -11.5911C159.791 -10.9422 159.941 -10.1632 159.739 -9.42887L159.527 -8.53991C159.438 -8.2168 159.32 -7.90139 159.162 -7.61222L157.564 -4.78705L156.059 -2.58334C155.012 -1.01523 153.767 0.642653 152.018 1.94845C150.87 2.73448 149.896 3.17258 149.159 3.49924C146.048 4.70085 143.182 4.54977 140.53 4.07702C137.289 3.62322 134.016 2.24817 130.921 0.400011C128.994 -0.638971 126.914 -1.81233 125.347 -3.5286C124.323 -4.6934 123.683 -5.93111 123.268 -7.1257C122.412 -9.64778 122.738 -12.5061 124.287 -14.8088C125.103 -16.1696 126.222 -17.4827 127.625 -18.391C128.051 -18.736 128.66 -19.112 129.419 -19.4016C130.208 -19.6834 131.425 -19.9161 132.594 -19.107C133.639 -18.2513 133.829 -17.6192 134 -17.3226C134.817 -16.0386 135.387 -14.4886 135.89 -12.9246C136.312 -10.7207 136.464 -8.85507 136.361 -7.04028C136.322 -5.97988 136.171 -4.85446 135.86 -3.66093L134.736 0.374235L133.519 4.46357C132.933 6.13647 132.318 7.80167 131.397 9.37123C130.519 10.8418 129.484 12.0822 128.421 13.1897C126.181 15.4217 123.606 17.0311 121.101 18.3281C119.682 19.122 117.976 19.9826 115.866 20.1866C114.171 20.3732 112.493 20.1548 110.842 19.8963L107.63 19.2771C104.287 18.3874 100.899 17.3757 98.4926 15.204C97.4583 14.1938 96.8558 13.1075 96.4892 12.083C95.8228 10.193 95.8188 8.19276 96.3054 6.30507C96.5827 4.66175 97.1335 2.88531 98.4617 1.50097C98.9339 0.931806 99.7442 0.167652 101.039 -0.0604505C103.168 -0.275209 104.825 0.771689 105.974 2.11108C106.962 3.34546 107.567 4.65275 108.089 5.85963C108.459 6.75901 108.767 7.76818 108.878 8.91505C109.049 10.2505 108.981 11.6494 108.943 13.0561C108.815 15.1321 108.583 17.2438 108.228 19.4019C107.84 22.1968 107.057 25.2193 105.506 28.1666C104.335 30.4736 102.811 32.6882 101.198 34.8796C100.186 36.205 99.1262 37.5335 97.9242 38.7462C96.5103 40.1553 95.0242 41.3095 93.506 42.2349C92.0548 43.1463 90.4885 43.9017 88.8366 44.3356C87.3107 44.771 85.643 44.9174 83.8815 44.7718C82.4123 44.6553 80.895 44.3688 79.3723 43.9865L73.684 42.3735C72.1078 41.8985 70.4833 41.4266 68.9502 40.6795C67.1758 39.7749 65.466 38.6353 64.3706 36.8692C63.7653 35.9082 63.3585 34.8573 63.0589 33.8188C62.5802 31.9936 62.3992 30.1203 62.4675 28.2019C62.3684 24.1305 62.7682 19.7959 65.7648 17.2264C66.7251 16.5487 67.6397 16.0952 68.7712 16.0604C70.2888 16.0007 71.6502 16.7974 72.47 17.783C73.2737 18.8274 73.592 19.8551 73.8488 20.8194C74.4158 22.8409 74.5189 25.0559 74.6247 27.1457L74.767 30.7719C74.8921 32.1584 75.0035 33.8246 74.9808 35.6919C74.9634 37.655 74.8037 39.8485 74.2016 42.0996C73.5108 44.6737 72.4474 47.1662 71.0544 49.3049C69.5755 51.6415 67.7698 53.4992 65.9697 54.9333L63.0699 57.1504C61.9405 58.0987 60.6232 59.3284 58.9171 60.5353L56.1677 62.3194L52.5091 64.4797C51.2968 65.1545 50.0495 65.8989 48.4165 66.1488C46.5181 66.3294 44.832 65.7942 43.4438 64.8646C42.3637 64.2517 41.2972 63.359 40.2012 62.4585L37.7359 60.4445C36.5862 59.6245 35.2704 58.7768 34.078 57.7095C32.9552 56.6761 32.0524 55.5901 31.2623 54.439C30.6891 53.5336 30.1401 52.5401 29.7763 51.3903C29.086 49.2422 28.8195 46.8743 28.923 44.5401C29.0782 41.0389 29.7107 37.4106 32.002 35.0502C32.9465 34.085 34.0757 33.4829 35.1751 33.2194C37.1622 32.7157 39.2665 33.2816 40.7269 34.6393C42.2595 36.0789 42.9929 37.9549 43.5735 39.6966C44.277 42.0843 44.3237 44.5049 44.4933 47.3985L44.7909 51.3801C45.052 53.8253 45.3933 56.4961 45.2119 59.1719C45.0437 62.0873 44.4519 64.8763 43.4878 67.2373C42.2041 70.3018 40.2265 72.5553 38.1097 74.5678C36.9238 75.7217 35.6415 76.8819 34.1983 77.9371C30.8962 80.2379 27.4684 82.0178 24.4297 83.4744C20.1787 85.4327 15.0574 85.8411 10.826 82.5469C9.65493 81.6898 8.46253 80.6225 7.30503 79.4856C5.91176 78.114 4.60971 76.6402 3.58111 75.2064C2.6222 73.8066 1.92062 72.5056 1.45494 71.2662C0.724338 69.265 0.567481 67.3035 0.560713 65.4285C0.492673 62.9708 0.577602 60.3013 2.24404 58.2025C3.2289 56.9174 4.60758 56.0972 6.18956 55.9755C7.83581 55.9651 8.878 57.1191 9.34139 57.7912L10.5971 60.3547L12.8207 66.9335C13.4656 68.7864 14.0379 70.9037 13.878 73.4435C13.8179 75.1593 13.4707 77.1149 12.8258 79.1186C12.1917 81.1409 11.3645 83.1757 10.5429 84.96C9.33209 87.2408 8.43016 88.7996 7.3141 89.8143M3.93132 88.5522C3.72814 87.6805 4.25962 86.7806 5.13919 86.5697C6.01876 86.3589 6.91928 86.8777 7.12246 87.7494C7.14918 87.8823 7.16519 87.9966 7.17314 88.1404C7.17037 88.2656 6.87885 87.1977 7.03147 87.5052C7.15195 87.7571 6.0722 86.6248 6.37238 86.7977C6.60287 86.9366 5.49846 86.585 5.70223 86.591C5.98374 86.6016 4.95409 86.726 5.07745 86.6795C5.20082 86.6331 4.77704 86.8529 4.83337 86.8204C5.58174 86.3391 6.59239 86.5718 7.06914 87.3104C7.47355 87.9671 7.34694 88.8312 6.77549 89.3587C6.62794 89.4933 6.44007 89.7747 5.72683 89.8402C4.88758 89.9041 4.05433 89.0251 3.94203 88.5708" fill="white"/>
</svg>
