<svg width="251" height="239" viewBox="0 0 251 239" fill="none" xmlns="http://www.w3.org/2000/svg">
<ellipse cx="121.594" cy="132.174" rx="60.1966" ry="59.8776" fill="#72E885"/>
<path d="M113.24 169.194L130.517 169.281" stroke="black" stroke-width="4" stroke-linecap="round" stroke-linejoin="round"/>
<path d="M180.335 131.635C180.335 128.681 180.296 125.827 179.991 122.973L179.819 121.596C179.742 121.117 179.838 121.835 179.761 121.316L179.628 120.398L179.303 118.602L178.901 116.965L178.213 114.71L176.837 110.898L176.474 109.9L176.283 109.461L175.729 108.083L175.137 106.686L173.703 103.732L173.111 102.634L172.824 102.135L172.442 101.537L171.773 100.299L171.143 99.1216L170.397 97.8642C169.881 96.9461 169.213 95.7286 168.162 94.4711L167.531 93.6728L166.728 92.7147L166.079 92.0561L165.333 91.118C165.219 90.9982 165.257 91.0382 165.295 91.118L164.531 90.2797C164.531 90.2797 164.492 90.2398 164.512 90.2797L163.652 89.2418L162.448 87.8447L161.263 86.4276L159.925 85.1103L159.084 84.3917L158.11 83.6732L157.766 83.4337L156.944 82.815L156.199 82.3359L155.625 81.9966L154.555 81.3979L153.37 80.859L151.842 80.1205L151.001 79.6814L148.344 78.1645L147.083 77.5058L144.522 76.3083L143.013 75.7893L142.631 75.6696L141.063 74.7115L139.152 73.8134L137.815 73.3743L135.044 72.3563L134.776 72.2765L134.165 72.037L133.228 71.7376L131.317 71.1588L130.725 70.9792L129.827 70.7596L128.183 70.3604L126.827 70.3005C127.037 70.3005 127.304 70.3005 127.037 70.3005H124.82C121.265 70.3005 118.38 73.3144 118.38 77.0268C118.38 80.7392 121.265 83.753 124.82 83.753H126.425C126.425 83.753 126.655 83.8129 126.979 83.8928L127.667 84.0524L129.043 84.4516L130.056 84.7909L130.553 84.9905L131.375 85.25L133.821 86.1482L134.91 86.4875C135.101 86.5673 134.776 86.4276 135.063 86.5873C135.407 86.7669 135.846 87.1661 137.146 87.8048L139.057 88.5632L140.108 88.9225L141.063 89.3616L142.478 90.1001L144.79 91.4174L146.376 92.2357L148 93.0341L148.765 93.3734L149.262 93.6528L149.759 93.9322L149.835 93.9921L150.523 94.5111L151.134 94.9302L151.383 95.1298L151.994 95.7286L152.491 96.3473L154.211 98.3632L154.861 99.1616L155.702 100.06L155.969 100.339L156.199 100.639C157.039 101.736 156.944 101.437 157.211 101.756L157.88 102.575L158.454 103.313L159.256 104.63L160.078 106.028L160.537 106.906L161.32 108.343L161.798 109.141L161.874 109.281L162.371 110.199L163.48 112.454L163.862 113.353L164.378 114.65L164.569 115.089L164.798 115.728L166.098 119.28L166.499 120.618L166.709 121.516L166.881 122.514L166.996 123.272C167.091 123.951 167.034 123.432 167.053 123.652L167.149 124.43C167.378 126.506 167.435 128.841 167.416 131.535V137.224C167.416 139.12 167.321 140.657 167.034 142.134L166.499 144.948L166.251 146.385L165.735 148.501L165.467 149.539L165.257 149.978L164.779 151.135L164.225 152.453L163.996 152.972L163.556 154.009L163.288 154.668L163.002 155.427L162.849 155.746L162.218 157.023L161.435 158.52L161.091 159.239L161.033 159.378C161.033 159.378 161.167 159.079 160.995 159.339L160.747 159.658L160.518 159.957L159.543 161.015L158.912 161.754L158.263 162.432L157.403 163.41L156.696 164.149L155.09 166.085L154.746 166.444L154.479 166.664L153.848 166.923C152.606 167.482 152.338 167.761 152.262 167.821L150.867 168.66L149.338 169.777L148.364 170.496L147.733 170.915L147.045 171.434L145.459 172.352L144.312 172.951L143.166 173.589L142.153 174.108L141.197 174.567L140.567 174.847L139.019 175.486L138.656 175.645L138.197 175.725L137.146 175.965C136.897 176.024 136.095 176.124 134.853 176.623L133.63 177.222L132.56 177.721L131.47 178.3L130.572 178.799L130.209 178.978L130.094 179.018L128.394 179.697L126.941 180.555L126.024 181.214L125.928 181.294L125.89 181.334L125.451 181.693C125.24 181.892 124.648 181.314 123.654 184.347C123.616 184.487 123.578 184.587 123.52 184.747C123.482 184.906 123.463 185.066 123.425 185.226C123.387 185.385 123.329 185.525 123.31 185.665C123.31 185.725 123.31 185.804 123.31 185.864C123.272 186.104 123.272 186.343 123.272 186.603C123.272 186.802 123.272 187.022 123.272 187.222C123.272 187.441 123.329 187.681 123.368 187.9C123.406 188.12 123.425 188.319 123.482 188.519C123.54 188.719 123.616 188.918 123.673 189.118C123.75 189.317 123.807 189.517 123.903 189.716C123.998 189.916 124.094 190.096 124.208 190.275C124.323 190.455 124.419 190.635 124.533 190.814C124.667 190.994 124.801 191.154 124.935 191.313C125.068 191.453 125.183 191.613 125.317 191.752L125.355 191.792C125.508 191.932 125.68 192.052 125.833 192.191C125.986 192.311 126.139 192.451 126.311 192.551L126.406 192.611C126.559 192.71 126.731 192.77 126.884 192.85C127.056 192.93 127.228 193.03 127.419 193.11C127.476 193.13 127.534 193.149 127.61 193.169C127.648 193.169 127.667 193.209 127.706 193.209C127.839 193.249 127.973 193.269 128.126 193.309H128.202C128.336 193.369 128.47 193.409 128.604 193.449H128.776C132.158 194.048 131.623 193.229 131.795 193.169C131.872 193.149 131.795 193.169 131.719 193.189C131.719 193.189 131.7 193.189 131.604 193.209C131.642 193.209 131.661 193.189 131.7 193.169C132.005 193.07 132.292 192.95 132.579 192.79C132.636 192.75 132.712 192.71 132.77 192.67C133.037 192.511 133.305 192.351 133.553 192.152L133.955 191.872L135.407 191.333L136.554 190.734L137.471 190.215L138.331 189.756L138.981 189.477C140.089 188.978 138.98 189.397 139.42 189.218L140.032 189.098L140.662 188.958L141.828 188.719C143.013 188.419 143.433 188.16 143.624 188.08L145.478 187.321L146.3 186.962L147.771 186.264L148.937 185.665L149.854 185.146L151.383 184.347C152.224 183.888 153.351 183.33 154.651 182.332L154.937 182.092L155.644 181.633L156.963 180.675L157.613 180.156L158.53 179.597L159.008 179.298C159.142 179.238 159.314 179.178 159.543 179.078L161.263 178.16C161.473 178.02 162.543 177.262 163.556 176.284L164.55 175.246L165.983 173.51L166.728 172.711L167.435 171.913L168.467 170.815L168.926 170.256L170.264 168.779L171.009 167.801L171.487 167.123C171.659 166.863 172.041 166.424 172.576 165.306L172.843 164.728L173.646 163.191L174.219 162.033L174.926 160.436L175.118 159.937L175.328 159.438L175.748 158.46L176.016 157.842L176.57 156.504L176.818 155.886L177.449 154.429L178.137 152.034L178.844 149.08L179.073 147.722L179.628 144.808C180.105 142.273 180.239 139.799 180.239 137.363V131.735L180.335 131.635ZM133.935 191.872C133.935 191.872 133.84 191.952 133.763 192.012C133.763 192.012 133.783 191.992 133.802 191.972C133.878 191.912 133.955 191.832 134.031 191.752C133.955 191.832 133.916 191.872 133.916 191.872H133.935ZM159.122 179.258H159.161L159.39 179.138C159.6 179.058 159.39 179.138 159.122 179.258Z" fill="#5CE071"/>
<path d="M184.214 132.853L184.157 128.641C184.214 126.286 183.908 124.53 183.507 122.793C183.163 121.576 182.915 119.32 182.494 117.185C182.112 114.949 181.634 112.993 181.042 110.997L179.609 107.125L178.366 104.291L177.048 101.916C176.799 101.457 176.341 100.359 175.959 99.1017L175.194 96.6068C174.64 94.9102 173.723 93.7127 172.958 92.7147L171.009 89.8805C170.206 88.6231 169.308 87.5852 168.448 86.7669L166.709 84.751L165.486 83.2341L164.493 82.2761L163.613 81.5975L163.174 81.2781C161.741 80.2402 160.479 80.1604 160.021 80.0007C159.696 79.861 158.97 79.0427 157.613 78.0248C155.855 76.6875 154.039 76.0488 152.778 75.47L150.428 74.5519C149.51 74.2325 148.287 73.9132 146.892 73.7535L144.809 73.6337L144.351 73.5739L142.707 73.015L141.484 72.4162L140.586 72.1168L139.516 71.8773L135.713 71.5979L133.305 71.6378H132.292L131.681 71.5979L131.012 71.558L130.286 71.5181H129.292C128.967 71.3584 128.566 71.1987 128.011 71.0989C126.616 70.9392 124.438 70.9592 122.164 71.1987C119.164 71.4981 116.431 72.037 113.946 72.6757L106.073 74.492C103.895 74.991 102.003 75.3702 100.283 76.0089L96.2315 77.5058L93.2503 78.8231C91.0335 79.841 89.1225 80.6793 87.2498 82.0964C86.1796 82.9148 85.3579 83.753 84.5744 84.5714L81.9754 87.1262C80.7141 88.3636 79.7013 89.0622 78.6502 90.0402C77.4081 91.1579 76.0322 92.6948 74.6372 94.3314L71.8471 97.7245L70.7005 99.3811L69.2099 102.215L68.1206 104.151L66.095 107.604C65.3497 109.061 64.547 111.157 63.7062 113.612L62.101 118.821C61.5085 120.937 61.1263 122.674 60.8015 124.39L60.2473 128.302C59.9989 130.378 59.6358 132.853 59.5211 135.168C59.4447 137.144 59.4829 139.06 59.7504 140.996C59.9606 142.413 60.3046 143.75 60.6486 145.168L61.7952 150.417C62.3112 153.031 62.8845 155.127 64.0311 157.083C64.7381 158.301 65.4643 159.578 66.0758 161.035L67.0314 163.31C67.8913 165.286 68.8659 166.624 69.7832 167.721L72.5541 171.514C73.2421 172.591 73.8918 173.729 74.9429 174.867C76.0513 176.044 77.4081 176.843 78.7267 177.721L81.8034 180.076C82.5487 180.715 83.2558 181.294 84.1922 181.853L87.5555 183.529C89.9252 184.767 91.2247 185.705 92.8108 186.623C94.5307 187.521 96.5946 188.14 98.9642 188.399C100.283 188.519 101.449 188.659 102.27 188.918L105.615 189.936L108.901 191.074L111.367 191.672C112.628 192.012 114.004 192.67 115.838 192.83L119.183 192.91H122.317C123.96 192.77 125.298 192.291 126.158 192.191C127.094 192.132 128.031 192.231 129.063 192.431L131.031 192.71C132.388 192.81 133.687 192.491 134.891 191.972C136.84 191.094 138.656 190.475 140.662 190.176L144.331 189.876L146.185 189.816L147.79 189.497C148.784 189.198 149.74 188.758 150.714 188.2L152.186 187.262L154.861 185.705L156.963 184.347L158.549 183.17L161.836 180.735L165.238 178.2C166.728 177.042 167.932 175.885 169.041 174.547L171.296 171.374L173.895 168.021L176.494 163.35L177.87 160.376L180.048 155.147C180.755 153.61 181.233 152.173 181.539 150.616L182.628 144.708L183.201 140.876C183.641 138.761 184.176 137.124 184.271 135.068V132.813L184.214 132.853ZM178.825 132.913V135.068C178.806 136.046 178.462 137.523 178.061 139.799L177.449 144.05L176.723 149.758C176.551 150.976 176.303 151.914 175.787 153.191L173.684 158.6L172.595 161.175L169.996 165.606L167.99 168.6L165.601 171.594C164.741 172.631 163.785 173.53 162.543 174.508L159.218 176.723L155.759 179.178L154.307 180.196L152.377 181.393L149.568 183.03L148.173 183.908L146.338 184.787L145.574 184.966L144.064 185.066C142.784 185.126 141.389 185.186 139.898 185.405C137.375 185.785 135.14 186.563 132.942 187.521C132.311 187.8 131.719 187.9 131.298 187.88L129.731 187.581C128.527 187.361 127.171 187.182 125.776 187.301C124.151 187.361 122.775 187.721 121.896 187.721H119.011L116.029 187.8C115.17 187.76 113.966 187.301 112.322 186.942L110.22 186.483C109.016 186.044 107.908 185.385 106.302 185.026L103.723 184.308C102.289 183.769 100.799 183.509 99.2891 183.31C97.531 183.11 96.0213 182.611 94.8747 181.992L89.5239 179.178L86.3516 177.541L84.6126 176.244L81.0581 173.669C79.7013 172.791 78.5356 172.053 77.9623 171.474C77.3125 170.855 76.701 169.997 75.9366 168.959L72.879 164.907C72.0764 163.909 71.4649 163.071 70.796 161.514L69.8979 159.299C69.1908 157.562 68.3882 156.065 67.6429 154.768C66.8594 153.411 66.458 151.954 65.9994 149.539L64.9292 144.15L64.2222 140.357C64.0311 138.761 64.012 137.184 64.1075 135.427C64.2031 133.471 64.5662 131.096 64.8337 128.961L65.3879 125.408L66.63 120.298L68.1971 115.348C68.9806 113.033 69.7641 111.097 70.3183 110.019L72.1911 106.766L73.2995 104.73L74.7136 102.056L75.5162 100.878L78.1152 97.6846C79.4338 96.1078 80.7332 94.6707 81.6123 93.8724C82.4149 93.1738 83.638 92.3754 85.2432 90.8785L87.804 88.164L89.9443 86.0883C91.3011 85.0304 92.8299 84.272 95.0084 83.2341L97.7603 81.9966L101.697 80.4398C103.016 79.9209 104.755 79.5217 107.01 78.9828L114.921 76.6675C117.214 75.929 119.737 75.3103 122.508 74.9111C122.871 74.8512 123.215 74.8313 123.578 74.7914C123.425 75.45 123.826 76.1286 124.457 76.2883L125.298 76.6276C125.527 76.7673 125.795 76.8472 126.062 76.8871L126.521 76.9669C126.674 77.0068 126.846 77.0268 126.999 77.0268H127.266L127.725 77.0667H128.031L128.642 77.1066L129.311 77.1465L129.98 77.1865L130.63 77.2264L131.298 77.2663L131.986 77.3062H135.484L138.522 77.6455L139.019 77.7852L139.478 77.9449L140.72 78.4639L143.013 79.1824L144.293 79.4019L146.3 79.5217C147.16 79.6015 148.096 79.841 148.65 80.0406L150.657 80.7991C152.147 81.3979 153.562 81.8569 154.536 82.5355C155.282 83.0545 156.218 84.3119 158.091 85.0105L160.116 85.6891L160.594 86.0683L161.053 86.5074L161.664 87.1461L162.543 88.204C163.27 89.142 164.034 90.0402 164.837 90.7787C165.448 91.3775 166.021 92.0561 166.537 92.9143C167.206 94.0121 167.951 95.2296 168.869 96.4072C169.595 97.2654 170.034 97.8043 170.283 98.4231L170.933 100.798C171.372 102.335 171.869 103.672 172.461 104.73L173.551 106.746L174.583 109.361L175.806 112.814C176.36 114.61 176.819 116.287 177.182 118.203C177.487 120.079 177.602 122.334 178.118 124.53C178.538 125.967 178.806 126.905 178.844 128.621L178.787 132.992L178.825 132.913Z" fill="#F6F4F9"/>
<path d="M178.98 202.384L177.652 200.867L175.28 197.53L173.762 195.672L172.358 194.269L171.163 193.15L165.528 187.86C164.257 186.628 163.308 185.68 162.53 184.599C162.208 184.201 161.809 183.424 161.012 182.609C160.405 181.945 159.836 181.68 159.589 181.528L158.906 181.13L158.375 180.864L157.578 180.542L156.857 180.352L156.288 180.276C156.155 180.276 156.003 180.258 155.871 180.276L155.169 180.371C154.77 180.447 154.391 180.637 154.068 180.921C153.081 181.793 152.968 183.291 153.84 184.296L154.144 184.637C154.239 184.732 154.353 184.827 154.467 184.922L154.96 185.282L155.586 185.68L156.022 185.908L156.402 186.097L156.705 186.249L156.99 186.42L158.166 188.107C159.267 189.453 160.5 190.591 161.866 191.785L167.52 196.942L168.81 198.194L170.176 199.464L171.334 200.696L173.629 203.749C174.18 204.507 174.711 204.962 175.071 205.323L172.605 205.55L168.981 206.327L167.254 206.593L165.528 206.896L160.007 207.844L151.526 208.849C149.097 209.058 147.124 209.645 144.05 210.366C141.128 211.105 137.504 211.295 134.507 211.636C134.146 211.674 133.824 211.75 133.482 211.807C129.726 210.707 125.988 209.892 122.667 208.659C120.41 207.806 117.583 206.403 113.902 205.664C110.657 205 107.413 204.811 104.662 204.299L99.4633 203.294C95.3082 202.668 90.7166 202.27 85.8784 201.758C81.5715 201.322 77.5302 200.886 74.893 200.355L74.6463 200.298L80.4711 195.975L82.1028 195.027L87.8327 191.861C90.5079 190.23 92.7847 188.315 94.3975 187.633L94.8148 187.443C94.9097 187.405 94.5302 187.785 95.4978 187.159C95.8393 186.931 96.105 186.609 96.2378 186.211C96.5983 185.073 96.086 184.713 95.8583 184.448L95.2892 184.012L94.4733 183.746L92.8606 183.86C90.2803 184.637 87.9276 186.514 85.499 187.766L79.7691 190.629L77.8148 191.652C75.9744 192.733 73.527 194.686 71.2691 196.222L68.7837 197.739L67.9109 198.023C67.7211 198.08 67.6073 198.023 66.8484 198.364C66.5827 198.497 65.9756 198.724 65.5392 199.559C65.4254 199.748 65.3305 199.938 65.2736 200.146C65.2736 200.146 65.2357 200.317 65.2167 200.412C65.2167 200.45 65.2167 200.469 65.2167 200.507C65.2167 200.62 65.1977 200.734 65.1787 200.848C65.1787 200.924 65.1787 201 65.1787 201.057C65.1787 201.151 65.1787 201.265 65.2167 201.36C65.2167 201.436 65.2356 201.512 65.2546 201.587C65.2546 201.625 65.2546 201.682 65.2736 201.72C65.7099 203.199 66.0326 202.972 66.1843 203.085L66.4689 203.294L66.8674 203.54L67.759 204.033L70.0928 205.19C71.1174 205.645 72.2367 205.967 73.6028 206.29C76.7334 207.048 80.8506 207.579 85.2144 208.11C90.0905 208.678 94.6061 209.152 98.4956 209.797L103.543 210.802C106.787 211.371 110.012 211.522 112.707 212.015C115.515 212.546 117.905 213.665 120.542 214.575C121.036 214.746 121.529 214.878 122.022 215.049C118.759 215.94 115.116 216.642 112.251 217.135C109.329 217.59 106.54 218.765 102.746 220.092C99.7668 221.173 96.7881 221.818 94.3785 222.368C92.576 222.766 91.1719 222.766 89.692 222.974C89.2177 223.012 88.5347 222.974 87.7379 223.846C86.8461 224.813 87.2066 226.615 87.8707 227.392L88.326 227.999L90.0335 230.103L91.5704 232.265C92.2724 233.118 93.3729 234.142 94.9666 234.217C96.0481 234.274 97.0157 233.478 97.1485 232.397C97.3003 231.355 96.6173 230.425 95.6497 230.122C95.6117 229.951 95.5928 229.781 95.5928 229.572C95.5928 229.079 95.2512 228.662 94.7768 228.567C94.663 228.548 94.5682 228.567 94.4543 228.567L93.7713 227.43L93.6005 227.202C94.1318 227.126 94.72 227.051 95.3271 226.918C97.7557 226.425 100.962 225.78 104.358 224.605C108.21 223.221 110.809 222.14 112.972 221.761C116.767 221.154 121.833 220.206 126.102 218.803C127.657 218.272 129.08 217.779 130.447 217.362C131.756 217.703 133.046 218.064 134.241 218.462C137.865 219.713 141.849 220.453 145.284 220.927L148.528 221.438L149.249 221.837C150.501 222.614 151.924 223.316 153.499 223.6L153.404 223.733L151.45 226.444L150.615 227.525L149.78 228.643L148.699 230.198L147.959 231.317L147.39 232.321L146.839 233.459L146.403 234.767C146.308 235.128 146.289 235.507 146.346 235.886C146.441 236.474 146.099 237.08 147.541 237.953C147.731 238.066 147.959 238.161 148.167 238.199C149.59 238.502 149.647 238.047 150.084 237.858C150.425 237.706 150.729 237.46 150.976 237.175L151.867 236.094L152.417 235.317L153.082 234.331L153.651 233.383L154.618 231.81L155.263 230.729L155.928 229.648L157.787 226.596L159.153 224.263C159.589 223.486 160.064 223.012 160.177 221.628C160.215 221.23 160.215 220.415 159.589 219.713C158.565 218.177 157.294 218.253 156.345 218.12C156.174 218.102 156.003 218.083 155.833 218.102L154.865 218.064C154.315 217.95 153.385 217.514 152.569 216.926C152.171 216.642 151.545 216.111 150.444 215.656C149.192 215.201 147.997 215.03 146.707 214.84C148.945 214.272 150.387 213.892 151.962 213.741L160.728 212.641L166.439 211.598L167.975 211.314L169.645 211.086L173.611 210.366L176.362 210.025C176.912 209.949 177.652 209.835 178.392 209.342C179.416 208.678 180.232 207.503 180.27 206.138C180.346 204.564 179.644 203.218 178.98 202.384ZM91.3238 224.245L91.21 224.093C91.21 224.093 91.3048 224.188 91.3238 224.226V224.245Z" fill="#F6F4F9"/>
<path d="M66.1034 113.137L65.7998 113.042C65.4583 112.948 65.1168 112.929 64.7563 112.986L64.4906 113.042L63.9784 113.194L63.9025 113.232L63.542 113.346L63.1815 113.478L62.802 113.63L62.3846 113.82L62.2139 113.896L61.6257 114.161L61.1514 114.408L60.696 114.654L60.3545 114.863L60.0319 115.052C59.4438 115.337 58.59 115.64 57.4706 116.266L57.0152 116.493L56.3132 116.778L55.8199 116.929L55.1748 117.081L53.7898 117.233L53.0119 117.403L51.1904 118.048L47.7183 119.394L45.0811 120.38C42.9181 121.233 40.5275 122.352 38.0041 123.148L35.3289 123.925L30.7184 125.158C28.4985 125.821 26.6202 126.523 25.1213 127.111L23.7552 127.642L23.0342 127.13L22.3512 126.599L21.5164 125.992L19.7898 124.513C19.1447 123.944 18.4807 123.546 17.8166 123.262L16.7541 122.788C16.3936 122.598 15.8813 122.105 15.2742 121.555C15.7675 121.461 16.2608 121.328 16.7351 121.119C18.5755 120.361 19.8088 118.73 20.0175 117.157C20.4918 115.393 19.2775 113.384 17.4751 112.549L16.6972 112.208L15.8434 111.943L14.9896 111.772L14.4773 111.715H13.8891L13.2441 111.772L12.7128 111.905C12.58 111.943 12.4662 111.981 12.3523 112.038L11.4416 112.606C11.2139 112.777 11.0242 113.004 10.8914 113.251L10.5688 114.161C10.0186 114.351 9.48737 114.711 9.1079 115.242C8.82331 115.811 8.69049 116.455 8.6146 117.157L7.91259 116.778L6.03425 115.962L3.0934 114.825C2.22064 114.521 1.253 114.919 0.854566 115.754C0.418183 116.664 0.778674 117.744 1.68939 118.2L4.25077 119.489L6.14809 120.475L8.38692 121.783L10.4171 123.205L11.0811 123.603C12.0108 124.248 12.9784 125.575 14.705 126.542L16.1659 127.187L17.0577 127.736L19.0119 129.329L19.8657 129.955L20.6246 130.542L21.9528 131.339C23.4896 132.097 25.1213 131.604 26.5822 131.092C28.1001 130.561 29.8646 129.936 31.9327 129.367L36.5242 128.172L39.3512 127.319C42.1971 126.39 44.7016 125.215 46.6938 124.418L49.2741 123.451L52.7842 121.992L54.2072 121.461L54.5107 121.404L55.6302 121.252L56.9203 121.044L57.888 120.797L58.7987 120.437L59.3299 120.171C60.2596 119.773 60.715 119.735 61.3601 119.565L61.8723 119.47L62.3467 119.337L62.9159 119.148L63.4471 118.939L64.0543 118.655L64.3578 118.484L64.7752 118.275L65.1357 118.067L65.4583 117.858L65.7618 117.65L65.8188 117.593L66.0844 117.441C66.1982 117.384 66.3121 117.308 66.4069 117.233L66.5967 117.081L66.7105 116.986C66.9761 116.759 67.1848 116.474 67.3176 116.152L67.4315 115.867C67.811 114.787 67.2607 113.592 66.1603 113.213L66.1034 113.137ZM13.0543 116.038C13.1871 116.038 13.32 116.038 13.4528 116.038H14.3255L14.8378 116.152L15.4449 116.304L15.9572 116.417C16.3367 116.512 16.4695 116.55 16.5074 116.55C16.3936 117.005 15.9383 117.65 15.407 117.877C14.6101 118.181 13.3769 118.067 12.2954 117.707C11.7831 117.574 11.9159 117.669 11.897 117.479L11.9918 116.247C12.0867 116.19 12.1816 116.114 12.2575 116.019C12.2575 116.019 12.2954 116.019 12.3333 115.981C12.5041 116 12.6749 116.057 12.8456 116.038H13.0733H13.0543Z" fill="#F6F4F9"/>
<path d="M250.618 118.844C250.428 118.313 249.84 118.029 249.29 118.218L245.969 119.678L244.641 120.494L243.901 120.968C243.237 119.546 241.833 118.692 240.353 118.029L239.443 117.688L238.911 117.517L238.039 117.308L236.9 117.27C236.616 117.27 236.331 117.346 236.084 117.46C235.743 117.612 235.439 117.801 235.136 118.029H234.927C233.295 118.029 232.138 119.242 231.588 120.494C231.151 121.536 230.867 122.902 231.436 124.551C231.797 125.48 232.385 126.163 233.087 126.675L231.417 127.566L227.3 130.201L225.042 131.908H224.966L222.974 131.168C222.348 130.922 221.57 130.523 220.432 129.708C218.686 128.381 216.447 126.769 213.468 125.272L210.85 123.982L207.795 122.333C205.538 121.233 203.071 120.209 200.434 119.148C198.669 118.446 197.114 117.725 195.88 116.853L193.907 115.299L190.947 112.929C188.974 111.507 186.849 110.407 184.629 109.212L180.759 107.051L178.804 105.648C178.804 105.648 178.804 105.648 178.823 105.705C178.691 105.477 178.539 105.269 178.33 105.098C178.33 105.098 178.33 105.079 178.273 105.041C178.216 104.965 178.14 104.89 178.064 104.833C176.736 103.79 175.541 104.984 175.162 105.932C175.01 106.293 174.972 106.691 175.048 107.089C175.294 108.302 175.883 108.644 176.395 109.118L178.33 110.634C179.563 111.507 181.024 112.265 182.485 113.08C184.686 114.313 186.621 115.393 188.177 116.588L190.89 118.958L193.148 120.702C194.875 121.916 196.772 122.769 198.669 123.546C201.288 124.589 203.659 125.575 205.746 126.599L208.687 128.078L211.495 129.424C214.132 130.656 216.182 132.002 217.87 133.178C219.236 134.183 220.337 134.827 221.475 135.282L223.638 135.851L224.89 136.155C225.744 136.23 226.427 135.984 226.958 135.737C228.078 135.207 228.495 134.6 229.709 133.785L233.732 131.396L238.342 128.684L239.519 128.059C239.955 128.002 240.429 127.945 240.904 127.793C242.118 127.395 242.896 126.618 243.294 126.011L244.205 125.48L245.552 124.57L246.88 123.565L248.227 122.409L250.428 119.887C250.656 119.603 250.732 119.223 250.618 118.882V118.844ZM238.855 122.219L240.202 122.826L240.429 122.864V122.94L239.101 123.603C238.646 123.565 238.096 123.489 237.507 123.357C236.236 123.224 235.61 122.807 235.553 122.674V121.612L235.61 121.404L235.933 121.366L236.331 121.328C236.331 121.328 236.369 121.347 236.388 121.366L237.261 121.688L237.64 121.802L238.001 121.916L238.855 122.219Z" fill="#F6F4F9"/>
<ellipse cx="150.559" cy="140.63" rx="22.7678" ry="21.8039" fill="white"/>
<ellipse cx="94.5877" cy="141.578" rx="21.8192" ry="20.8559" fill="white"/>
<path d="M107.195 138.869L107.1 138.224L107.006 137.144L106.873 136.594C106.854 136.48 106.816 136.385 106.759 136.272L106.702 136.177L106.474 135.532L106.171 134.812L105.962 134.357L105.715 133.902L105.602 133.674L105.184 133.029C104.824 132.479 104.406 132.119 104.046 131.797L103.515 131.342L102.945 130.887L102.3 130.47L101.845 130.204L101.276 129.958C100.479 129.654 99.644 129.427 98.6574 129.275L97.1775 129.143C96.3237 129.143 95.2802 129.218 94.0469 129.655C93.4588 129.882 92.7188 130.185 91.8081 130.716L90.6128 131.607L90.5558 131.664C90.2523 131.683 89.9677 131.816 89.74 132.043L89.5502 132.271C89.5502 132.271 89.4934 132.366 89.4744 132.423C89.4365 132.498 89.3795 132.574 89.3416 132.65C89.3036 132.726 89.3036 132.821 89.2847 132.897C89.2847 132.953 89.2467 133.01 89.2467 133.067C89.2467 133.067 89.2467 133.105 89.2467 133.124C89.2467 133.143 89.2467 133.181 89.2467 133.2L89.0949 133.352L88.8482 133.579L88.4498 133.807L87.8996 134.281L87.596 134.508L86.7992 135.248L86.6094 135.494L86.192 136.006L85.7746 136.48L84.9967 137.542C84.5603 138.224 84.1998 139.078 83.8773 139.969C83.4599 141.201 83.3081 142.471 83.4599 143.685C83.4978 144.462 83.7065 145.126 83.8773 145.751L84.048 146.377L84.3516 147.23L84.7121 147.97L85.0347 148.463L85.471 149.069L85.7746 149.487L85.9074 149.657L86.5715 150.51L87.1786 151.155L88.5637 152.217L89.1898 152.52L89.778 152.805L90.1385 152.975L90.8594 153.335C92.1496 153.828 93.3639 153.809 94.4264 153.79L95.4509 153.696L96.6842 153.658L97.9174 153.525L98.5815 153.335L99.2456 153.089L100.023 152.672L100.555 152.368L100.934 152.122L102.016 151.477L102.85 150.852L103.42 150.359L103.951 149.904L104.634 149.202L105.07 148.614L105.791 147.306L106.512 145.202L106.93 143.723L107.1 143.002L107.309 141.618V139.703L107.214 138.869H107.195Z" fill="black"/>
<path d="M162.312 137.561L161.933 136.366L161.591 135.532L160.984 134.584L160.68 134.129L160.415 133.712L159.865 132.954C159.295 132.252 158.328 131.418 156.943 130.906C156.032 130.602 154.931 130.337 153.49 130.129L152.75 130.091L151.611 130.015L150.53 130.091L149.942 130.166C149.828 130.185 149.695 130.223 149.581 130.261C149.486 130.299 149.372 130.356 149.277 130.394C149.202 130.394 149.145 130.356 149.069 130.356C148.822 130.356 148.594 130.451 148.405 130.584H148.006L146.849 130.925L146.299 131.133L145.502 131.569L144.895 131.949C144.401 132.328 144.041 132.764 143.794 133.105C143.111 133.958 142.618 134.887 142.144 135.76L141.309 137.257L140.91 138.167C140.683 138.774 140.664 139.324 140.645 139.608L140.55 141.542V142.452L140.872 143.912L141.1 144.519L141.309 145.012L141.669 145.638L142.011 146.206L142.276 146.662L142.561 147.154L142.827 147.591L143.225 148.197L143.68 148.937L144.269 149.695L145.103 150.491L145.957 150.965C147.228 151.515 148.613 152.027 150.055 152.236C150.131 152.236 150.188 152.236 150.264 152.236L150.511 152.33C151.365 152.615 152.218 152.596 152.807 152.482C153.243 152.406 153.812 152.255 154.343 152.008C154.514 151.97 154.685 151.932 154.875 151.894L155.102 151.819L156.355 151.345L156.924 151.003L157.493 150.643L157.91 150.321L158.479 149.885L159.049 149.373L159.352 149.069L159.732 148.671L160.472 147.913L160.946 147.306L161.477 146.396L161.933 145.372L162.122 144.803C162.255 144.254 162.54 143.552 162.692 142.699C162.938 141.694 162.862 140.765 162.843 140.007C162.843 139.021 162.559 138.205 162.331 137.58L162.312 137.561Z" fill="black"/>
<path d="M94.8056 135.987C94.1606 135.551 93.6673 135.57 93.2688 135.513C93.0791 135.513 92.7186 135.437 92.1114 135.551C91.5802 135.684 91.1628 135.968 90.8213 136.271C90.7643 136.309 90.6884 136.328 90.6315 136.347C90.4987 136.423 90.3659 136.518 90.2521 136.651C89.588 137.371 89.7208 137.883 89.7398 137.883C89.6639 138.148 89.626 138.376 89.588 138.566C89.5501 138.85 89.4552 139.324 89.7018 139.95C89.7208 140.026 89.7777 140.101 89.7967 140.177C89.8346 140.253 89.8536 140.31 89.8916 140.367C89.8916 140.367 89.9105 140.386 89.9295 140.405C90.1572 140.765 90.4418 141.049 90.7454 141.296C91.2197 141.618 91.6371 141.675 91.9027 141.713C92.453 141.77 93.2309 141.865 94.0467 141.466C95.4507 140.841 95.9061 139.495 95.9251 138.357C95.9251 138.3 96.0009 138.035 95.9251 137.599C95.7922 136.651 95.1851 136.215 94.8246 136.006L94.8056 135.987Z" fill="white"/>
<path d="M151.934 136.309C151.516 135.76 151.137 135.665 150.985 135.57C150.359 135.229 149.79 135.191 149.505 135.172C149.259 135.134 148.822 134.982 147.968 135.058C147.172 135.191 146.602 135.608 146.185 136.044L145.521 137.011C145.274 137.561 145.274 138.054 145.293 138.49C145.255 138.736 145.236 138.964 145.236 139.172C145.236 139.552 145.236 140.101 145.502 140.67C146.014 141.77 146.963 142.206 147.949 142.49L148.538 142.585C149.183 142.642 149.79 142.377 150.188 141.903C150.89 141.542 151.327 140.974 151.744 140.405C152.067 139.893 152.275 139.362 152.351 138.926C152.465 138.547 152.522 138.073 152.446 137.618C152.427 137.485 152.446 136.878 151.953 136.309H151.934Z" fill="white"/>
<path d="M167.592 72.5904C159.382 69.2322 154.354 65.075 150.295 57.3954C149.484 55.8595 147.902 47.3754 146.848 46.7789C146.262 46.4214 146.018 47.5961 145.544 48.0631C142.34 51.4506 139.245 56.1333 134.179 56.9177C129.821 57.4723 125.95 55.9127 122.439 53.5322C120.801 52.3429 119.424 47.8609 117.882 49.3786C115.865 51.5986 116.651 56.4289 114.513 59.001C106.555 68.7055 96.6383 57.686 90.5566 52.9324C89.504 52.1006 91.5965 55.4113 92.058 56.5915C92.7475 58.7148 93.0813 61.1884 92.8277 63.5397C92.0708 70.123 86.3814 75.4914 80.712 78.2715" stroke="#F6F4F9" stroke-width="4.51" stroke-miterlimit="1.5" stroke-linecap="round"/>
<path d="M93.4436 29.5406C94.5071 28.9605 83.5384 17.1092 80.5869 18.3806" stroke="#F6F4F9" stroke-width="4.51" stroke-miterlimit="1.5" stroke-linecap="round"/>
<path d="M116.118 3.71161C116.474 3.36137 116.363 2.53684 116.243 2.8889C114.322 7.81592 111.892 17.681 114.09 22.5222" stroke="#F6F4F9" stroke-width="4.51" stroke-miterlimit="1.5" stroke-linecap="round"/>
<path d="M144.808 6.52286C151.331 -0.133487 140.357 19.0785 141.745 22.1485" stroke="#F6F4F9" stroke-width="4.51" stroke-miterlimit="1.5" stroke-linecap="round"/>
</svg>
