<svg width="132" height="229" viewBox="0 0 132 229" fill="none" xmlns="http://www.w3.org/2000/svg">
<ellipse cx="69.7193" cy="103.091" rx="59.3355" ry="58.8292" fill="#ACAAFA"/>
<path d="M127.619 102.561C127.619 99.659 127.582 96.8548 127.28 94.0506L127.111 92.6976C127.035 92.2269 127.129 92.9329 127.054 92.423L126.922 91.521L126.602 89.7561L126.206 88.1481L125.528 85.9322L124.172 82.1867L123.814 81.2063L123.626 80.7748L123.08 79.4218L122.496 78.0491L121.083 75.1468L120.499 74.0683L120.216 73.5781L119.84 72.9898L119.18 71.774L118.559 70.617L117.824 69.3816C117.316 68.4795 116.656 67.2833 115.62 66.0479L114.999 65.2635L114.208 64.3223L113.567 63.6752L112.832 62.7535C112.719 62.6358 112.757 62.6751 112.795 62.7535L112.041 61.9299C112.041 61.9299 112.004 61.8907 112.022 61.9299L111.175 60.9102L109.988 59.5375L108.82 58.1452L107.502 56.851L106.673 56.145L105.712 55.4391L105.373 55.2037L104.563 54.5958L103.829 54.1252L103.263 53.7918L102.209 53.2036L101.041 52.6741L99.5338 51.9485L98.7049 51.5171L96.0867 50.0268L94.8434 49.3797L92.3193 48.2031L90.8312 47.6932L90.4545 47.5756L88.9099 46.6343L87.0262 45.7519L85.7077 45.3204L82.9764 44.3203L82.7126 44.2419L82.1099 44.0066L81.1868 43.7124L79.3032 43.1438L78.7192 42.9673L77.8339 42.7516L76.214 42.3594L74.8766 42.3005C75.0838 42.3005 75.3475 42.3005 75.0838 42.3005H72.8987C69.3951 42.3005 66.5508 45.2616 66.5508 48.909C66.5508 52.5564 69.3951 55.5175 72.8987 55.5175H74.481C74.481 55.5175 74.7071 55.5763 75.0273 55.6548L75.7054 55.8116L77.0616 56.2038L78.06 56.5372L78.5497 56.7333L79.3597 56.9882L81.7708 57.8707L82.8445 58.204C83.0328 58.2825 82.7126 58.1452 82.9952 58.3021C83.3342 58.4786 83.7675 58.8708 85.0484 59.4983L86.932 60.2434L87.9681 60.5964L88.9099 61.0278L90.3038 61.7534L92.583 63.0476L94.1465 63.8516L95.7476 64.636L96.5011 64.9694L96.9908 65.2439L97.4806 65.5185L97.5559 65.5773L98.234 66.0871L98.8368 66.499L99.0817 66.6951L99.6845 67.2833L100.174 67.8912L101.87 69.8718L102.51 70.6562L103.339 71.5387L103.602 71.8132L103.829 72.1073C104.657 73.1859 104.563 72.8917 104.827 73.2055L105.486 74.0095L106.051 74.735L106.842 76.0293L107.652 77.402L108.104 78.2648L108.877 79.6767L109.348 80.4611L109.423 80.5984L109.913 81.5004L111.005 83.7163L111.382 84.5987L111.891 85.8734L112.079 86.3048L112.305 86.9323L113.586 90.4228L113.981 91.7367L114.189 92.6191L114.358 93.5996L114.471 94.3448C114.565 95.0115 114.509 94.5017 114.528 94.7174L114.622 95.4821C114.848 97.5216 114.904 99.8159 114.886 102.463V108.052C114.886 109.915 114.791 111.425 114.509 112.876L113.981 115.641L113.737 117.053L113.228 119.131L112.964 120.151L112.757 120.583L112.286 121.72L111.74 123.014L111.514 123.524L111.081 124.544L110.817 125.191L110.534 125.936L110.384 126.25L109.762 127.505L108.99 128.976L108.651 129.682L108.594 129.819C108.594 129.819 108.726 129.525 108.557 129.78L108.312 130.093L108.086 130.387L107.125 131.427L106.503 132.152L105.863 132.819L105.015 133.78L104.318 134.506L102.736 136.408L102.397 136.761L102.133 136.976L101.512 137.231C100.287 137.78 100.024 138.055 99.9482 138.114L98.5731 138.937L97.0662 140.035L96.1055 140.741L95.4839 141.153L94.8058 141.663L93.2423 142.565L92.1121 143.153L90.9819 143.781L89.9836 144.291L89.0418 144.742L88.4201 145.016L86.8944 145.644L86.5365 145.801L86.0844 145.879L85.0484 146.114C84.8035 146.173 84.0124 146.271 82.788 146.762L81.5824 147.35L80.5276 147.84L79.4539 148.409L78.5686 148.899L78.2107 149.076L78.0976 149.115L76.4212 149.782L74.9896 150.625L74.0854 151.272L73.9913 151.35L73.9536 151.39L73.5203 151.742C73.3131 151.939 72.7292 151.37 71.7497 154.351C71.712 154.488 71.6744 154.586 71.6178 154.743C71.5802 154.9 71.5613 155.057 71.5237 155.213C71.486 155.37 71.4295 155.508 71.4106 155.645C71.4106 155.704 71.4106 155.782 71.4106 155.841C71.373 156.076 71.373 156.312 71.373 156.566C71.373 156.763 71.373 156.978 71.373 157.174C71.373 157.39 71.4295 157.625 71.4672 157.841C71.5048 158.057 71.5237 158.253 71.5802 158.449C71.6367 158.645 71.712 158.841 71.7685 159.037C71.8439 159.233 71.9004 159.43 71.9946 159.626C72.0888 159.822 72.1829 159.998 72.296 160.175C72.409 160.351 72.5032 160.528 72.6162 160.704C72.748 160.881 72.8799 161.037 73.0117 161.194C73.1436 161.332 73.2566 161.489 73.3885 161.626L73.4262 161.665C73.5768 161.802 73.7464 161.92 73.8971 162.057C74.0478 162.175 74.1985 162.312 74.368 162.41L74.4622 162.469C74.6129 162.567 74.7824 162.626 74.9331 162.704C75.1026 162.783 75.2721 162.881 75.4605 162.959C75.517 162.979 75.5735 162.998 75.6489 163.018C75.6866 163.018 75.7054 163.057 75.7431 163.057C75.8749 163.097 76.0068 163.116 76.1575 163.155H76.2328C76.3647 163.214 76.4965 163.253 76.6284 163.293H76.7979C80.132 163.881 79.6046 163.077 79.7741 163.018C79.8494 162.998 79.7741 163.018 79.6988 163.038C79.6988 163.038 79.6799 163.038 79.5857 163.057C79.6234 163.057 79.6423 163.038 79.6799 163.018C79.9813 162.92 80.2639 162.802 80.5464 162.646C80.6029 162.606 80.6783 162.567 80.7348 162.528C80.9985 162.371 81.2622 162.214 81.5071 162.018L81.9026 161.743L83.3343 161.214L84.4644 160.626L85.3686 160.116L86.2163 159.665L86.8567 159.39C87.9492 158.9 86.8567 159.312 87.2899 159.135L87.8927 159.018L88.5143 158.88L89.6633 158.645C90.8312 158.351 91.2456 158.096 91.434 158.018L93.2612 157.272L94.0711 156.919L95.5215 156.233L96.6706 155.645L97.5748 155.135L99.0817 154.351C99.9105 153.9 101.022 153.35 102.303 152.37L102.585 152.135L103.282 151.684L104.582 150.742L105.222 150.233L106.127 149.683L106.598 149.389C106.729 149.33 106.899 149.272 107.125 149.174L108.82 148.272C109.027 148.134 110.082 147.389 111.081 146.428L112.06 145.409L113.473 143.702L114.208 142.918L114.904 142.134L115.922 141.055L116.374 140.506L117.692 139.055L118.427 138.094L118.898 137.427C119.067 137.172 119.444 136.741 119.972 135.643L120.235 135.074L121.026 133.564L121.592 132.427L122.288 130.858L122.477 130.368L122.684 129.878L123.098 128.917L123.362 128.309L123.908 126.995L124.153 126.387L124.775 124.956L125.453 122.602L126.15 119.7L126.376 118.367L126.922 115.504C127.393 113.013 127.525 110.582 127.525 108.189V102.659L127.619 102.561ZM81.8838 161.743C81.8838 161.743 81.7896 161.822 81.7143 161.881C81.7143 161.881 81.7331 161.861 81.752 161.841C81.8273 161.783 81.9027 161.704 81.978 161.626C81.9027 161.704 81.865 161.743 81.865 161.743H81.8838ZM106.711 149.35H106.748L106.974 149.232C107.181 149.154 106.974 149.232 106.711 149.35Z" fill="#918FFA"/>
<path d="M131.443 103.757L131.387 99.6198C131.443 97.3058 131.142 95.5802 130.747 93.8741C130.407 92.6779 130.163 90.4621 129.748 88.3638C129.371 86.1675 128.901 84.2458 128.317 82.2848L126.904 78.4805L125.679 75.6959L124.38 73.3624C124.135 72.9113 123.683 71.8328 123.306 70.5974L122.553 68.1462C122.006 66.4793 121.102 65.3028 120.349 64.3223L118.427 61.5377C117.636 60.3023 116.751 59.2826 115.903 58.4786L114.189 56.498L112.984 55.0076L112.004 54.0664L111.138 53.3996L110.704 53.0859C109.292 52.0662 108.048 51.9877 107.596 51.8309C107.276 51.6936 106.56 50.8896 105.223 49.8895C103.49 48.5757 101.7 47.9481 100.457 47.3795L98.1403 46.4774C97.2361 46.1637 96.0306 45.8499 94.6555 45.693L92.6023 45.5754L92.1502 45.5165L90.5303 44.9675L89.3247 44.3792L88.4394 44.085L87.3846 43.8497L83.636 43.5752L81.2626 43.6144H80.2643L79.6615 43.5752L79.0022 43.5359L78.2864 43.4967H77.3069C76.9867 43.3399 76.5911 43.183 76.0449 43.0849C74.6698 42.928 72.5224 42.9477 70.2809 43.183C67.3235 43.4771 64.6298 44.0066 62.1811 44.6341L54.4204 46.4186C52.273 46.9088 50.4082 47.2814 48.7129 47.9089L44.7195 49.3797L41.781 50.6739C39.5959 51.674 37.7123 52.4976 35.8663 53.8899C34.8114 54.6939 34.0014 55.5175 33.2291 56.3215L30.6674 58.8315C29.4241 60.0473 28.4258 60.7337 27.3898 61.6946C26.1654 62.7927 24.8092 64.3027 23.4341 65.9107L20.6839 69.2443L19.5537 70.8719L18.0845 73.6565L17.0108 75.5587L15.0141 78.9511C14.2795 80.3826 13.4883 82.4417 12.6595 84.8537L11.0772 89.9718C10.4933 92.0504 10.1166 93.7565 9.79633 95.4429L9.25007 99.2864C9.00519 101.326 8.6473 103.757 8.53428 106.032C8.45893 107.974 8.49661 109.856 8.76032 111.758C8.96753 113.151 9.30658 114.464 9.64564 115.857L10.7758 121.014C11.2844 123.583 11.8495 125.642 12.9797 127.564C13.6767 128.76 14.3925 130.015 14.9953 131.446L15.9371 133.682C16.7847 135.623 17.7454 136.937 18.6496 138.016L21.3809 141.742C22.059 142.8 22.6994 143.918 23.7354 145.036C24.828 146.193 26.1654 146.977 27.4651 147.84L30.4978 150.154C31.2325 150.782 31.9294 151.35 32.8524 151.899L36.1677 153.547C38.5034 154.762 39.7843 155.684 41.3477 156.586C43.043 157.469 45.0774 158.076 47.4131 158.331C48.7129 158.449 49.8619 158.586 50.6719 158.841L53.9683 159.841L57.2082 160.959L59.6381 161.547C60.8814 161.881 62.2376 162.528 64.0459 162.685L67.3423 162.763H70.4316C72.0515 162.626 73.3701 162.155 74.2177 162.057C75.1407 161.998 76.0637 162.096 77.0809 162.293L79.0211 162.567C80.3585 162.665 81.6394 162.351 82.8261 161.841C84.7474 160.979 86.5369 160.371 88.5148 160.077L92.1314 159.782L93.9586 159.724L95.5408 159.41C96.5203 159.116 97.4622 158.684 98.4228 158.135L99.8733 157.214L102.51 155.684L104.582 154.351L106.146 153.194L109.386 150.801L112.739 148.311C114.208 147.173 115.395 146.036 116.487 144.722L118.71 141.604L121.272 138.31L123.834 133.721L125.19 130.799L127.337 125.662C128.034 124.152 128.505 122.74 128.806 121.21L129.88 115.406L130.445 111.641C130.878 109.562 131.406 107.954 131.5 105.934V103.718L131.443 103.757ZM126.132 103.816V105.934C126.113 106.895 125.774 108.346 125.378 110.582L124.775 114.759L124.06 120.367C123.89 121.563 123.645 122.485 123.137 123.74L121.065 129.054L119.991 131.584L117.429 135.937L115.451 138.878L113.097 141.82C112.249 142.84 111.307 143.722 110.083 144.683L106.805 146.86L103.396 149.272L101.964 150.272L100.062 151.448L97.2926 153.056L95.9176 153.919L94.1092 154.782L93.3558 154.958L91.8677 155.057C90.6056 155.115 89.2305 155.174 87.7613 155.39C85.2748 155.762 83.0709 156.527 80.9047 157.469C80.2831 157.743 79.6992 157.841 79.2848 157.821L77.7402 157.527C76.5535 157.312 75.2161 157.135 73.841 157.253C72.2399 157.312 70.8836 157.665 70.0171 157.665H67.1728L64.2343 157.743C63.3866 157.704 62.1999 157.253 60.58 156.9L58.5079 156.449C57.3212 156.017 56.2287 155.37 54.6464 155.017L52.1035 154.311C50.6907 153.782 49.2215 153.527 47.7334 153.331C46.0004 153.135 44.5123 152.645 43.3821 152.037L38.1078 149.272L34.9809 147.664L33.2668 146.389L29.7632 143.859C28.4258 142.997 27.2767 142.271 26.7116 141.702C26.0712 141.094 25.4684 140.251 24.715 139.231L21.7011 135.251C20.91 134.27 20.3072 133.447 19.6479 131.917L18.7626 129.74C18.0656 128.034 17.2745 126.564 16.5399 125.289C15.7676 123.955 15.372 122.524 14.9199 120.151L13.8651 114.857L13.1681 111.131C12.9797 109.562 12.9609 108.013 13.0551 106.287C13.1493 104.365 13.5072 102.032 13.7709 99.9336L14.3171 96.443L15.5415 91.4229L17.0861 86.5597C17.8584 84.285 18.6307 82.3828 19.177 81.3239L21.023 78.1275L22.1155 76.1273L23.5094 73.4996L24.3006 72.3427L26.8623 69.2051C28.1621 67.6559 29.443 66.244 30.3095 65.4596C31.1006 64.7733 32.3062 63.9889 33.8884 62.5182L36.4125 59.8512L38.5222 57.8118C39.8596 56.7725 41.3666 56.0274 43.5139 55.0076L46.2264 53.7918L50.1068 52.2623C51.4065 51.7524 53.1207 51.3602 55.3434 50.8308L63.1418 48.556C65.4022 47.8305 67.8886 47.2226 70.6199 46.8304C70.9778 46.7716 71.3169 46.7519 71.6748 46.7127C71.5241 47.3598 71.9196 48.0266 72.5413 48.1835L73.3701 48.5168C73.5961 48.6541 73.8598 48.7325 74.1235 48.7717L74.5756 48.8502C74.7263 48.8894 74.8958 48.909 75.0465 48.909H75.3102L75.7623 48.9482H76.0637L76.6665 48.9875L77.3258 49.0267L77.985 49.0659L78.6255 49.1051L79.2848 49.1443L79.9629 49.1836H83.41L86.405 49.5169L86.8948 49.6542L87.3469 49.8111L88.5713 50.3209L90.8317 51.0269L92.0937 51.2426L94.0716 51.3602C94.9192 51.4387 95.8422 51.674 96.3885 51.8701L98.3663 52.6153C99.8356 53.2035 101.229 53.6546 102.19 54.3213C102.925 54.8312 103.848 56.0666 105.694 56.7529L107.69 57.4196L108.161 57.7922L108.613 58.2236L109.216 58.8512L110.083 59.8905C110.799 60.8121 111.552 61.6946 112.343 62.4201C112.946 63.0084 113.511 63.6751 114.02 64.5184C114.679 65.5969 115.414 66.7931 116.318 67.9501C117.033 68.7933 117.467 69.3228 117.712 69.9307L118.352 72.2642C118.785 73.7742 119.275 75.088 119.859 76.1273L120.933 78.1079L121.95 80.6768L123.155 84.0693C123.702 85.8342 124.154 87.4814 124.512 89.3639C124.813 91.2072 124.926 93.4231 125.435 95.5802C125.849 96.9921 126.113 97.9137 126.15 99.6002L126.094 103.895L126.132 103.816Z" fill="#F6F4F9"/>
<ellipse cx="98.2683" cy="109.155" rx="22.4421" ry="21.4221" fill="white"/>
<ellipse cx="43.0979" cy="110.087" rx="21.507" ry="20.4907" fill="white"/>
<path d="M55.5249 107.425L55.4314 106.792L55.3379 105.73L55.2069 105.19C55.1882 105.078 55.1508 104.985 55.0947 104.873L55.0386 104.78L54.8142 104.147L54.515 103.439L54.3093 102.992L54.0662 102.545L53.954 102.321L53.5425 101.688C53.1872 101.148 52.7757 100.794 52.4204 100.477L51.8968 100.03L51.3357 99.5828L50.6998 99.173L50.251 98.9122L49.69 98.6701C48.9045 98.372 48.0816 98.1485 47.1091 97.9995L45.6504 97.8691C44.8088 97.8691 43.7802 97.9436 42.5646 98.3721C41.9848 98.5956 41.2554 98.8936 40.3577 99.4152L39.1796 100.291L39.1234 100.347C38.8242 100.365 38.5437 100.496 38.3193 100.719L38.1322 100.943C38.1322 100.943 38.0762 101.036 38.0575 101.092C38.0201 101.166 37.9639 101.241 37.9265 101.315C37.8891 101.39 37.8891 101.483 37.8704 101.557C37.8704 101.613 37.833 101.669 37.833 101.725C37.833 101.725 37.833 101.762 37.833 101.781C37.833 101.8 37.833 101.837 37.833 101.855L37.6834 102.005L37.4403 102.228L37.0475 102.452L36.5052 102.917L36.2059 103.141L35.4205 103.867L35.2335 104.109L34.822 104.612L34.4106 105.078L33.6438 106.121C33.2137 106.792 32.8583 107.63 32.5404 108.506C32.129 109.716 31.9794 110.964 32.129 112.157C32.1664 112.92 32.3721 113.572 32.5404 114.187L32.7087 114.802L33.008 115.64L33.3633 116.367L33.6812 116.851L34.1114 117.447L34.4106 117.857L34.5415 118.025L35.1961 118.863L35.7945 119.496L37.1597 120.539L37.7769 120.837L38.3567 121.117L38.712 121.284L39.4226 121.638C40.6944 122.123 41.8913 122.104 42.9386 122.085L43.9485 121.992L45.1641 121.955L46.3797 121.825L47.0343 121.638L47.6889 121.396L48.4556 120.986L48.9793 120.688L49.3533 120.446L50.4193 119.813L51.2422 119.198L51.8033 118.714L52.3269 118.267L53.0002 117.577L53.4303 117L54.141 115.715L54.8516 113.647L55.263 112.194L55.4314 111.486L55.6371 110.126V108.245L55.5436 107.425H55.5249Z" fill="black"/>
<path d="M109.854 106.14L109.48 104.966L109.144 104.147L108.545 103.215L108.246 102.768L107.984 102.358L107.442 101.613C106.881 100.924 105.927 100.104 104.562 99.6015C103.664 99.3034 102.579 99.0427 101.158 98.8378L100.429 98.8005L99.3065 98.726L98.2405 98.8005L97.6607 98.8751C97.5485 98.8937 97.4176 98.9309 97.3054 98.9682C97.2119 99.0054 97.0997 99.0613 97.0061 99.0986C96.9313 99.0986 96.8753 99.0613 96.8005 99.0613C96.5573 99.0613 96.3329 99.1544 96.1459 99.2848H95.7532L94.6123 99.6201L94.07 99.825L93.2845 100.254L92.686 100.626C92.1998 100.999 91.8445 101.427 91.6014 101.762C90.9281 102.601 90.4418 103.513 89.9743 104.37L89.1514 105.842L88.7587 106.736C88.5342 107.332 88.5156 107.872 88.4969 108.152L88.4033 110.052V110.946L88.7213 112.38L88.9457 112.976L89.1514 113.461L89.5067 114.075L89.8434 114.634L90.1052 115.081L90.3857 115.566L90.6476 115.994L91.0403 116.59L91.4891 117.317L92.0689 118.062L92.8917 118.844L93.7333 119.31C94.9864 119.85 96.3516 120.353 97.7729 120.558C97.8477 120.558 97.9038 120.558 97.9786 120.558L98.2218 120.651C99.0633 120.93 99.905 120.912 100.485 120.8C100.915 120.726 101.476 120.577 102 120.334C102.168 120.297 102.336 120.26 102.523 120.223L102.748 120.148L103.982 119.682L104.543 119.347L105.104 118.993L105.515 118.676L106.077 118.248L106.638 117.745L106.937 117.447L107.311 117.056L108.04 116.311L108.508 115.715L109.031 114.821L109.48 113.815L109.667 113.256C109.798 112.716 110.079 112.026 110.228 111.188C110.471 110.201 110.397 109.288 110.378 108.543C110.378 107.574 110.097 106.773 109.873 106.159L109.854 106.14Z" fill="black"/>
<path d="M46.7105 111.877C45.1267 111.877 43.8545 113.144 43.8545 114.721C43.8545 116.299 45.1267 117.566 46.7105 117.566C48.2943 117.566 49.5665 116.299 49.5665 114.721C49.5665 113.144 48.2943 111.877 46.7105 111.877Z" fill="white"/>
<path d="M104.812 113.57C104.774 113.381 104.698 113.249 104.623 113.117C104.623 113.061 104.661 113.004 104.661 112.948C104.661 112.382 104.263 111.911 103.733 111.779C103.525 111.703 103.317 111.666 103.09 111.703C103.033 111.703 102.976 111.76 102.919 111.779L102.2 111.609L101.594 111.685C100.894 111.892 100.478 112.59 100.553 113.287C100.516 113.344 100.478 113.419 100.44 113.494L100.383 113.928C100.383 114.116 100.383 113.815 100.345 113.985C100.307 114.173 100.194 114.512 100.402 115.059C100.459 115.21 100.535 115.342 100.648 115.455C101.311 116.19 101.784 115.945 102.011 115.926L102.352 115.87C102.352 115.87 102.616 115.832 102.863 115.738C102.9 115.738 102.9 115.719 102.938 115.7H102.957C102.957 115.7 102.9 115.719 102.863 115.738H102.844L102.957 115.7C103.052 115.7 103.146 115.662 103.241 115.643C103.355 115.625 103.468 115.625 103.563 115.568C103.657 115.53 103.733 115.455 103.828 115.38C103.885 115.342 103.96 115.304 104.017 115.266C104.093 115.229 104.168 115.191 104.244 115.153C104.528 114.946 105.039 114.437 104.85 113.551L104.812 113.57Z" fill="white"/>
<path d="M102.896 223.383C102.671 223.122 102.41 222.917 102.129 222.749L101.325 222.302C101.194 222.228 101.044 222.153 100.895 222.097L100.427 221.93L99.7165 221.688L99.2864 221.576L98.9496 221.483L98.5757 221.371L98.0145 221.203L97.6593 221.11L97.3226 221.017L96.8925 220.887L93.5076 219.862C93.358 219.825 93.2271 219.806 93.0775 219.788L92.2732 219.694L92.3853 219.229C92.5349 218.595 92.7968 217.869 92.8903 216.937C93.1147 215.242 93.2457 213.212 92.0488 211.684L92.4976 210.734C93.2644 209.505 94.5923 207.94 95.359 207.27C95.6396 207.009 96.2006 206.618 96.7804 205.761C97.622 204.401 97.6966 203.153 97.547 202.166C97.4348 200.992 96.7242 199.781 95.7517 198.943C94.8727 198.216 93.844 197.602 92.8715 197.061L90.6274 195.851L91.8992 193.541C92.8717 191.902 95.2655 189.964 95.7704 186.779C95.9013 185.885 95.7891 185.214 95.7704 184.842C95.733 183.333 95.228 181.749 94.0685 180.613C92.5349 179.067 90.5525 178.322 88.9068 177.651L88.402 177.502C88.402 177.204 88.3646 177.111 88.3646 177.036L88.5328 176.235C88.7947 175.472 89.2809 174.559 89.9167 173.609C91.0576 171.895 92.8716 170.256 93.8628 168.132C94.6296 166.456 94.798 164.518 94.4052 162.563C94.106 161.11 93.4139 159.694 92.217 158.651C91.2445 157.812 90.1786 157.328 89.2248 156.937C87.4668 156.229 85.9519 155.95 84.9233 155.931C84.0817 155.931 83.3525 156.546 83.2403 157.384C83.1094 158.297 83.7638 159.154 84.6802 159.284C85.1851 159.359 86.4756 159.638 87.7847 160.234C88.5515 160.588 89.2622 160.998 89.7111 161.426C90.1412 161.836 90.4591 162.488 90.59 163.289C90.8144 164.593 90.6462 165.58 90.216 166.419C89.7111 167.443 87.9531 169.175 86.4757 171.336C85.6902 172.491 85.0357 173.665 84.6242 174.857L84.2313 176.478L84.1754 177.39C84.1754 177.39 84.1754 177.446 84.1941 177.39C84.0258 178.303 84.2875 179.346 84.7925 180.017C85.6902 181.246 86.9058 181.544 87.3546 181.731C88.8508 182.327 90.3842 183.053 91.0201 183.687C91.2632 183.929 91.4315 184.301 91.4502 184.897L91.3943 185.959C91.1885 186.835 89.3556 188.623 87.7473 191.007C87.1301 191.976 86.5504 192.963 86.1015 194.062L85.6527 195.739C85.4844 196.968 86.1389 198.533 87.2797 199.334C88.5141 200.172 89.6922 200.47 90.5338 200.917L92.722 202.445C92.722 202.445 92.8156 202.519 92.8343 202.538L92.6846 203.097L92.0675 203.637C90.8145 204.773 89.4119 206.45 88.402 208.126C87.9906 208.76 87.6164 209.412 87.3359 210.231L87.0553 211.703C87.0553 212.839 87.766 213.938 87.953 214.087C88.0652 214.236 88.084 215.037 87.8783 215.969L87.2238 217.683L86.7563 219.247L86.4195 220.589C86.3821 220.756 86.2326 221.129 86.2887 221.818C86.3448 222.563 86.7373 223.346 87.2423 223.942L88.0279 224.705C88.1401 224.817 88.2524 224.929 88.3833 225.041L89.7859 225.879L91.6561 226.512C91.787 226.55 91.9366 226.587 92.0862 226.605L94.6858 227.22L95.4524 227.462L95.8453 227.574L96.4624 227.742L96.8738 227.816L97.2292 227.891L97.678 228.002L98.4261 228.152L98.9309 228.226L99.3984 228.282C99.5481 228.301 99.7164 228.301 99.8847 228.301H100.783C101.119 228.263 101.437 228.189 101.755 228.077C102.653 227.723 103.532 227.574 104.167 226.68C104.298 226.512 104.354 226.289 104.373 226.084C104.429 224.836 103.588 224.165 102.933 223.42L102.896 223.383Z" fill="#F6F4F9"/>
<path d="M56.1417 172.622C54.4585 171.429 52.5509 170.759 50.9051 170.274L49.0349 169.716V169.418L49.1845 167.983C49.4463 166.791 49.9888 165.506 51.2044 164.09C52.1956 162.954 53.4298 161.929 54.3462 161.203L56.0294 159.88C56.1416 159.787 56.2539 159.694 56.3474 159.563C56.7588 159.023 56.684 159.042 57.2263 158.818C57.6191 158.651 57.8809 158.278 57.8996 157.868C57.937 157.272 57.4693 156.751 56.8521 156.713C56.0667 156.676 55.2813 156.62 54.3649 157.011C54.234 157.067 54.1031 157.142 53.9722 157.235L52.289 158.595C51.2978 159.358 49.8953 160.476 48.6423 161.855C47.0339 163.624 46.1174 165.468 45.6872 167.126L45.2759 169.157C45.1823 169.865 44.9952 171.038 45.8929 172.268C47.1273 173.888 48.3803 173.702 49.8951 174.13C51.2604 174.484 52.8127 175.006 53.9348 175.77C55.1317 176.552 55.861 177.39 56.1976 178.024C56.5904 178.862 56.6091 179.402 56.4969 179.775C56.2351 180.483 54.4023 182.103 52.3077 183.705L48.8667 186.667L46.4541 189.07L45.014 190.858C44.5278 191.641 44.2473 192.46 44.1351 193.261C44.0977 193.597 44.0416 194.062 44.1351 194.603C44.1351 194.733 44.1725 195.348 44.5839 196.037C45.4255 197.415 46.6225 197.956 47.2584 198.347C48.6797 199.185 50.4002 199.837 52.1021 200.359C53.3738 200.787 54.3274 201.215 54.5519 201.42C54.6454 201.495 54.7576 202.464 54.3275 203.414C53.8412 204.438 52.6257 205.463 51.1857 206.748L49.465 208.35L48.6795 209.132L48.025 209.877C47.7818 210.157 47.4827 210.474 47.146 211.219C46.8094 212.113 47.2583 213.51 47.9129 214.032C48.4926 214.516 48.9602 214.609 49.3529 214.739C50.3441 215.019 51.2978 215.559 51.8402 216.136L52.476 216.993L52.5134 217.478L51.971 217.85L49.2781 218.484C47.2396 218.856 45.4442 219.452 44.1538 219.694L41.4981 219.918L41.068 219.955L40.7687 219.992L40.4322 220.03L40.0954 220.086L39.8149 220.123C39.5156 220.179 39.2165 220.253 38.9359 220.402L38.2065 220.775L37.7951 221.036L37.5146 221.259C37.2341 221.501 37.0097 221.799 36.8413 222.116C36.1681 223.476 36.7105 225.115 38.0757 225.786L38.5807 226.009L39.1416 226.177L39.7402 226.289C40.0394 226.345 40.3573 226.345 40.6566 226.307L40.9931 226.27L41.3298 226.233L41.6104 226.196L42.0218 226.121L42.2649 226.065C43.2 225.879 44.3221 225.711 45.5003 225.339L50.5312 223.699C52.233 223.215 53.6356 222.805 54.6455 221.893L55.5057 221.203C56.1415 220.644 56.6652 219.62 56.7026 219.247C56.8148 218.949 57.0019 218.446 56.9832 217.459C56.8897 216.621 56.6091 215.857 56.2538 215.335C55.9172 214.684 55.4496 214.013 54.8324 213.38C54.0096 212.523 52.9998 211.871 51.9151 211.386L52.1582 211.144L53.7665 209.654C55.1131 208.443 56.8335 207.176 57.806 205.109C58.7784 203.078 59.1527 200.489 57.3012 198.663C56.1604 197.527 54.7577 197.117 53.4672 196.652C51.9524 196.074 50.4563 195.366 49.5586 194.733L48.5112 193.969V193.839L48.8105 193.187L49.6894 191.957L51.7466 189.741L54.9635 186.928C56.9459 185.233 59.3209 183.575 60.0316 181.004C60.4991 179.477 60.1811 177.875 59.5079 176.552C58.872 175.136 57.7126 173.795 56.1043 172.659L56.1417 172.622Z" fill="#F6F4F9"/>
<path d="M109.537 54.9891C108.404 42.0899 103.083 14.3376 89.8486 15.4011C76.6143 16.4645 75.669 29.6296 76.8506 36.0792C74.4872 26.134 65.7135 6.74584 49.5255 8.75457C33.3375 10.7633 35.9866 38.9348 39.3347 52.7694C36.3805 38.6886 25.262 15.8769 10.9653 34.1955C0.424975 47.701 10.1321 63.0842 21.7513 69.9769" stroke="#F6F4F9" stroke-width="6" stroke-linecap="round" stroke-linejoin="round"/>
<path d="M78.7439 141.962C78.0063 146.997 74.0778 149.942 69.9913 148.528C65.9047 147.114 63.1646 141.911 63.9021 136.875C64.6397 131.839 68.5683 128.895 72.6656 130.294C76.7628 131.693 79.4814 136.926 78.7439 141.962Z" fill="black"/>
</svg>
