<svg width="49" height="50" viewBox="0 0 49 50" fill="none" xmlns="http://www.w3.org/2000/svg">
<g clip-path="url(#clip0_103_3334)">
<path fill-rule="evenodd" clip-rule="evenodd" d="M19.4093 9.91773C19.278 9.13898 19.1791 8.36907 19.1153 7.59907C19.019 6.44407 19.0785 5.28024 19.0444 4.12524C19.0295 3.63524 18.9709 2.35775 18.9945 2.174C19.2089 0.572752 20.5012 0.327723 20.8792 0.283973C21.0621 0.257723 22.9399 0.0478164 23.345 2.13032C23.842 4.67657 24.0013 7.24028 23.8254 9.75153C24.2358 11.8865 24.9375 14.0127 25.8641 15.9377C29.5514 23.594 36.5776 24.3378 44.1901 24.2678C45.3609 24.2503 46.333 25.169 46.3943 26.3327C46.4555 27.5052 45.584 28.5202 44.4185 28.6252C40.1634 29.0365 32.6139 32.449 30.0037 36.0015C29.4577 36.7453 29.1401 38.5391 28.7201 40.2978C28.1339 42.7391 27.4365 45.154 26.6551 46.169C26.5379 46.3265 25.1125 47.9366 24.6872 48.1728C23.6652 48.7328 22.8471 48.409 22.3825 48.1115C21.9179 47.814 21.392 47.2278 21.182 46.2565C20.9624 45.2415 21.1479 43.159 21.1138 42.7127C20.9895 41.094 20.6658 37.9177 20.0052 35.1877C19.649 33.7177 19.2693 32.3615 18.641 31.6877C16.3153 29.194 12.5965 29.5615 9.46489 29.9728C9.10526 30.0165 8.74564 30.0691 8.38689 30.1128C7.11202 30.4891 5.75836 30.769 4.32773 30.9352C2.16736 31.189 1.81213 29.2027 1.79288 29.0715C1.75263 28.7827 1.60299 27.2953 3.23137 26.7003C3.40899 26.639 4.71975 26.3503 5.22463 26.2365C5.92813 26.079 6.63949 25.9565 7.35349 25.8428C14.7289 23.5503 18.7346 17.1102 19.4093 9.91773ZM21.9406 17.8716C24.7249 23.6291 28.9502 26.4115 33.9587 27.6715H33.9579C30.8306 29.3078 27.986 31.3553 26.4784 33.4116C25.9061 34.1903 25.3811 35.7565 24.9078 37.5153C24.6514 35.879 24.3049 34.1377 23.8473 32.6502C23.3266 30.9527 22.6257 29.5441 21.8435 28.7041C20.3332 27.0853 18.438 26.1841 16.4001 25.7378C18.8396 23.5766 20.6894 20.8816 21.9406 17.8716Z" fill="#F6F4F9"/>
</g>
<defs>
<clipPath id="clip0_103_3334">
<rect width="49" height="49" fill="white" transform="translate(0 0.261505)"/>
</clipPath>
</defs>
</svg>
