<svg width="46" height="46" viewBox="0 0 46 46" fill="none" xmlns="http://www.w3.org/2000/svg">
<path fill-rule="evenodd" clip-rule="evenodd" d="M20.4745 17.7073C16.2045 14.2736 12.7446 10.1844 10.1446 5.42031C9.62459 4.47139 8.41463 4.10943 7.43463 4.61812C6.46463 5.12682 6.09456 6.31054 6.61456 7.26923C9.47456 12.4834 13.2546 16.9638 17.9346 20.7301C18.7846 21.4149 20.0546 21.2975 20.7546 20.466C21.4546 19.6247 21.3245 18.392 20.4745 17.7073Z" fill="#F6F4F9"/>
<path fill-rule="evenodd" clip-rule="evenodd" d="M18.1974 4.33447C18.4174 8.28665 18.6174 12.2388 18.8674 16.191C18.9374 17.2671 19.8874 18.0888 20.9874 18.0203C22.0874 17.9519 22.9274 17.0225 22.8574 15.9464C22.6074 12.004 22.4074 8.06167 22.1874 4.10949C22.1274 3.03634 21.1774 2.2097 20.0774 2.27036C18.9774 2.33101 18.1274 3.25545 18.1974 4.33447Z" fill="#F6F4F9"/>
<path fill-rule="evenodd" clip-rule="evenodd" d="M33.0434 5.13671C30.4834 8.91279 27.5835 12.3954 24.6635 15.9171C23.9635 16.7584 24.0934 17.9911 24.9534 18.6661C25.8134 19.3509 27.0735 19.2236 27.7635 18.3823C30.7635 14.7726 33.7435 11.1823 36.3835 7.29863C36.9935 6.39863 36.7334 5.18562 35.8134 4.58888C34.9034 3.99214 33.6534 4.23671 33.0434 5.13671Z" fill="#F6F4F9"/>
<path fill-rule="evenodd" clip-rule="evenodd" d="M42.96 19.1747C36.02 19.478 28.65 19.4878 21.71 19.0573C20.61 18.9986 19.66 19.8106 19.59 20.8965C19.52 21.9725 20.36 22.9019 21.46 22.9704C28.54 23.4008 36.0601 23.391 43.1401 23.0877C44.2401 23.0388 45.1 22.1193 45.05 21.0432C45 19.9671 44.06 19.1258 42.96 19.1747Z" fill="#F6F4F9"/>
<path fill-rule="evenodd" clip-rule="evenodd" d="M17.9292 20.417C22.2092 25.5431 26.6392 30.5714 30.6092 35.9322C31.2592 36.8029 32.5093 36.9985 33.4093 36.3626C34.2993 35.7267 34.4992 34.5039 33.8492 33.6332C29.8292 28.2137 25.3493 23.1267 21.0193 17.9419C20.3193 17.1104 19.0592 16.9833 18.2092 17.6681C17.3492 18.3528 17.2292 19.5855 17.9292 20.417Z" fill="#F6F4F9"/>
<path fill-rule="evenodd" clip-rule="evenodd" d="M19.2254 21.9044C20.3454 27.2457 20.6554 32.3522 20.7354 37.762C20.7454 38.8381 21.6554 39.6989 22.7554 39.6892C23.8654 39.6696 24.7454 38.7891 24.7254 37.7033C24.6454 32.0391 24.3154 26.7076 23.1454 21.112C22.9154 20.0555 21.8655 19.3706 20.7755 19.5956C19.6955 19.8109 18.9954 20.8479 19.2254 21.9044Z" fill="#F6F4F9"/>
<path fill-rule="evenodd" clip-rule="evenodd" d="M19.406 21.4741C16.166 27.8133 14.4959 34.8568 11.0259 41.0589C10.4959 41.9981 10.8559 43.1915 11.8259 43.71C12.7959 44.2285 14.006 43.8763 14.536 42.9371C18.026 36.6958 19.7159 29.6133 22.9859 23.2252C23.4759 22.2567 23.0759 21.0828 22.0959 20.5937C21.1059 20.1143 19.906 20.5057 19.406 21.4741Z" fill="#F6F4F9"/>
<path fill-rule="evenodd" clip-rule="evenodd" d="M21.1891 20.0356C14.7391 21.1508 8.29907 21.6595 1.80907 22.4127C0.709073 22.5399 -0.0709267 23.5084 0.0590733 24.5845C0.189073 25.6606 1.17917 26.4236 2.27917 26.2965C8.83917 25.5432 15.3591 25.0149 21.8892 23.8899C22.9692 23.6943 23.6991 22.6769 23.5091 21.6203C23.3091 20.554 22.2791 19.8399 21.1891 20.0356Z" fill="#F6F4F9"/>
<path fill-rule="evenodd" clip-rule="evenodd" d="M25.6774 17.0622C24.3474 17.0035 23.0874 16.9154 21.7874 16.7296C20.6874 16.573 19.6774 17.3165 19.5174 18.3828C19.3574 19.4491 20.1173 20.447 21.2073 20.6035C22.6473 20.8089 24.0373 20.9067 25.4973 20.9654C26.5973 21.0144 27.5373 20.1828 27.5773 19.0969C27.6273 18.0208 26.7774 17.1111 25.6774 17.0622Z" fill="#F6F4F9"/>
</svg>
